<svg
   xmlns:dc="http://purl.org/dc/elements/1.1/"
   xmlns:cc="http://creativecommons.org/ns#"
   xmlns:rdf="http://www.w3.org/1999/02/22-rdf-syntax-ns#"
   xmlns:svg="http://www.w3.org/2000/svg"
   xmlns="http://www.w3.org/2000/svg"
   xmlns:sodipodi="http://sodipodi.sourceforge.net/DTD/sodipodi-0.dtd"
   xmlns:inkscape="http://www.inkscape.org/namespaces/inkscape"
   width="276"
   height="89"
   id="svg3785"
   version="1.1"
   inkscape:version="0.48.2 r9819"
   sodipodi:docname="amira.svg">
  <defs
     id="defs3787" />
  <sodipodi:namedview
     id="base"
     pagecolor="#ffffff"
     bordercolor="#666666"
     borderopacity="1.0"
     inkscape:pageopacity="0.0"
     inkscape:pageshadow="2"
     inkscape:zoom="3.959798"
     inkscape:cx="125.39143"
     inkscape:cy="34.847699"
     inkscape:document-units="px"
     inkscape:current-layer="layer1"
     showgrid="false"
     fit-margin-top="0"
     fit-margin-left="0"
     fit-margin-right="0"
     fit-margin-bottom="0"
     inkscape:window-width="1748"
     inkscape:window-height="1132"
     inkscape:window-x="20"
     inkscape:window-y="20"
     inkscape:window-maximized="0" />
  <metadata
     id="metadata3790">
    <rdf:RDF>
      <cc:Work
         rdf:about="">
        <dc:format>image/svg+xml</dc:format>
        <dc:type
           rdf:resource="http://purl.org/dc/dcmitype/StillImage" />
        <dc:title />
      </cc:Work>
    </rdf:RDF>
  </metadata>
  <g
     inkscape:label="Layer 1"
     inkscape:groupmode="layer"
     id="layer1"
     transform="translate(-237,-487.86218)">
    <g
       style="font-size:48px;font-style:normal;font-variant:normal;font-weight:normal;font-stretch:normal;line-height:125%;letter-spacing:0px;word-spacing:0px;fill:#093d5f;fill-opacity:1;stroke:none;font-family:Open Sans;-inkscape-font-specification:Open Sans"
       id="text4621"
       transform="translate(4,0)">
      <path
         d="m 295.40477,498.97451 c 0,-5.32799 -4.68001,-9.144 -12.384,-9.144 -14.03998,0 -26.06401,8.71201 -35.136,18.792 -2.592,-1.224 -4.752,-2.736 -6.336,-4.536 -1.656,-1.872 -2.448,-3.528 -1.512,-5.688 0.792,-1.728 -0.432,-2.52 -1.296,-1.368 -1.584,1.152 -1.368,5.832 0.648,8.136 1.8,2.016 4.32,3.6 7.2,4.968 -2.448,2.808 -4.536,5.904 -6.336,9.144 -7.19999,13.03199 -7.19999,25.776 -0.288,28.728 10.22399,4.392 23.68801,-9.36001 29.592,-16.344 -3.24,4.248 -5.03999,18.432 2.952,18.432 4.032,0 8.136,-2.88 10.584,-6.192 2.664,-3.528 5.4,-8.64 6.696,-11.52 0.792,-1.728 -0.576,-1.656 -1.224,-0.288 -1.584,3.6 -4.032,7.344 -6.264,10.224 -5.68799,7.05599 -12.816,8.85599 -10.584,-3.312 1.296,-7.05599 5.40001,-14.76 9.432,-19.296 4.176,-4.53599 0.36,-10.36799 -4.104,-2.016 -3.81599,7.05599 -11.44801,16.41601 -18.864,22.68 -13.24799,11.01599 -24.69599,7.77598 -17.352,-10.584 2.592,-6.40799 7.848,-14.472 10.44,-18.144 6.76799,2.16 13.60801,2.376 21.744,1.656 16.77598,-1.512 22.392,-9.072 22.392,-14.328 m -2.952,-0.864 c 0,7.12799 -7.48801,12.456 -19.44,13.464 -9.14399,0.792 -14.976,0.432 -20.592,-1.368 8.06399,-9.64799 17.35202,-18.504 30.816,-18.504 5.256,0 9.216,2.16001 9.216,6.408"
         style="font-size:72px;text-align:start;line-height:125%;writing-mode:lr-tb;text-anchor:start;fill:#093d5f;fill-opacity:1;font-family:Great Vibes;-inkscape-font-specification:Great Vibes"
         id="path3755"
         inkscape:connector-curvature="0" />
      <path
         d="m 377.17202,528.27851 c 1.368,-13.67999 -4.96801,-24.48001 -14.76,-30.96 0.864,-1.584 4.392,-7.416 6.336,-7.416 0.504,0 0.936,-0.72 0,-0.936 -2.016,-0.432 -5.76,2.23201 -9.432,6.552 -7.48799,-3.95999 -16.48801,-5.616 -25.344,-4.32 -29.66397,4.32 -30.09599,25.20001 -17.496,29.592 6.336,2.232 14.184,-1.80001 15.192,-8.928 0.216,-1.368 -1.368,-1.368 -1.44,-0.648 -0.144,2.52 -4.53601,10.512 -13.032,7.848 -10.65599,-3.312 -4.60798,-21.096 15.336,-25.344 8.92799,-1.872 17.71201,-0.21599 24.768,4.032 -11.30399,12.59999 -16.70401,32.32801 -27.36,42.552 -2.304,-1.224 -8.208,-4.32 -10.944,-5.328 -16.19998,-5.61599 -21.16798,11.376 -6.48,13.104 6.91199,0.864 12.74401,-0.936 18,-5.184 14.54399,8.20799 44.424,8.27998 46.656,-14.616 m -4.536,0.144 c -2.016,18.50398 -26.49601,21.45599 -40.392,13.176 0.936,-0.792 1.8,-1.584 2.736,-2.592 7.91999,-8.49599 17.28001,-25.70401 25.704,-38.952 8.13599,6.40799 13.176,16.56001 11.952,28.368 m -44.568,13.32 c -3.95999,2.88 -8.568,4.536 -13.752,4.32 -8.78399,-0.432 -7.55999,-12.816 2.88,-9.216 4.32,1.512 7.41601,3.24 10.872,4.896"
         style="font-size:72px;text-align:start;line-height:125%;writing-mode:lr-tb;text-anchor:start;fill:#093d5f;fill-opacity:1;font-family:Great Vibes;-inkscape-font-specification:Great Vibes"
         id="path3757"
         inkscape:connector-curvature="0" />
      <path
         d="m 405.4444,532.31051 c 0.72,-1.512 -0.36,-2.016 -1.008,-0.72 -1.512,3.096 -6.40801,12.888 -9.72,12.672 -0.936,-0.072 -1.656,-0.864 -1.08,-3.816 0.936,-5.03999 8.64,-18.576 8.64,-18.576 -2.448,-0.864 -9.86401,3.672 -13.32,6.768 -1.944,1.656 -3.88801,3.888 -5.832,6.336 5.90399,-12.02399 15.264,-29.664 18.432,-32.904 -1.008,0.144 -2.088,-0.216 -3.024,-0.288 -2.304,-0.144 -3.456,1.512 -5.112,4.536 -6.984,12.88799 -13.96801,27.57601 -19.8,39.672 0.72,-0.432 1.368,-0.36 2.448,-0.432 1.512,0 2.16,-0.072 2.664,-1.08 4.10399,-7.99199 7.632,-12.024 10.08,-14.256 5.54399,-5.18399 6.84,-3.24 5.112,-0.432 -2.016,3.24 -3.384,5.688 -3.96,7.56 -2.16,6.69599 1.296,8.424 3.816,8.424 5.32799,0 9.288,-8.496 11.664,-13.464"
         style="font-size:72px;text-align:start;line-height:125%;writing-mode:lr-tb;text-anchor:start;fill:#093d5f;fill-opacity:1;font-family:Great Vibes;-inkscape-font-specification:Great Vibes"
         id="path3759"
         inkscape:connector-curvature="0" />
      <path
         d="m 430.71865,532.23851 c 0.72,-1.44 -0.36,-1.872 -1.008,-0.576 -1.512,3.096 -6.26401,12.24 -9.288,12.096 -0.936,0 -1.296,-1.368 -0.72,-4.32 0.936,-4.39199 5.184,-11.952 6.696,-13.464 -1.008,0.216 -2.088,-0.216 -3.024,-0.288 -2.304,-0.144 -3.312,1.584 -4.896,4.608 -1.872,3.528 -3.88801,7.056 -6.408,10.08 -3.384,4.032 -7.344,4.608 -6.624,-0.432 0.432,-2.736 2.376,-6.264 2.952,-7.272 2.59199,-4.24799 6.336,-8.496 9.576,-10.296 2.66399,-1.44 5.328,-0.864 6.12,1.8 1.224,0.216 1.8,-1.008 0.792,-2.088 -4.104,-4.46399 -12.38401,-1.79999 -16.704,3.312 -10.87199,13.03199 -5.39999,25.63199 2.88,17.712 2.08799,-2.016 4.032,-4.896 5.184,-6.768 -2.16,7.55999 1.224,9.432 3.6,9.288 4.31999,-0.36 8.712,-9 10.872,-13.392"
         style="font-size:72px;text-align:start;line-height:125%;writing-mode:lr-tb;text-anchor:start;fill:#093d5f;fill-opacity:1;font-family:Great Vibes;-inkscape-font-specification:Great Vibes"
         id="path3761"
         inkscape:connector-curvature="0" />
      <path
         d="m 448.40252,509.99051 c 5.184,-11.51999 -2.592,-12.52799 -7.704,-3.96 -4.17599,6.98399 -8.712,17.35201 -10.944,25.416 -1.224,4.32 -4.67999,14.184 3.384,14.184 7.27199,0 11.016,-9.72 12.816,-13.536 0.648,-1.44 -0.432,-1.584 -1.08,-0.36 -0.936,1.872 -2.952,5.76 -5.328,9.144 -3.81599,5.328 -9.576,4.10399 -7.416,-4.536 0.432,-1.8 1.152,-3.528 1.512,-4.752 7.05599,-6.40799 11.44801,-14.18401 14.76,-21.6 m -1.08,-1.08 c -2.808,6.69599 -7.992,15.19201 -13.104,20.376 2.232,-5.75999 7.84801,-18.648 11.376,-23.616 3.888,-5.54399 3.168,-0.072 1.728,3.24"
         style="font-size:72px;text-align:start;line-height:125%;writing-mode:lr-tb;text-anchor:start;fill:#093d5f;fill-opacity:1;font-family:Great Vibes;-inkscape-font-specification:Great Vibes"
         id="path3763"
         inkscape:connector-curvature="0" />
      <path
         d="m 463.73065,509.99051 c 5.18399,-11.51999 -2.59201,-12.52799 -7.704,-3.96 -4.176,6.98399 -8.71201,17.35201 -10.944,25.416 -1.224,4.32 -4.68,14.184 3.384,14.184 7.27199,0 11.016,-9.72 12.816,-13.536 0.648,-1.44 -0.432,-1.584 -1.08,-0.36 -0.936,1.872 -2.95201,5.76 -5.328,9.144 -3.816,5.328 -9.576,4.10399 -7.416,-4.536 0.432,-1.8 1.152,-3.528 1.512,-4.752 7.05599,-6.40799 11.448,-14.18401 14.76,-21.6 m -1.08,-1.08 c -2.808,6.69599 -7.99201,15.19201 -13.104,20.376 2.23199,-5.75999 7.848,-18.648 11.376,-23.616 3.88799,-5.54399 3.168,-0.072 1.728,3.24"
         style="font-size:72px;text-align:start;line-height:125%;writing-mode:lr-tb;text-anchor:start;fill:#093d5f;fill-opacity:1;font-family:Great Vibes;-inkscape-font-specification:Great Vibes"
         id="path3765"
         inkscape:connector-curvature="0" />
      <path
         d="m 486.54677,532.23851 c 0.72,-1.44 -0.36,-1.872 -1.008,-0.576 -1.512,3.096 -6.264,12.24 -9.288,12.096 -0.936,0 -1.296,-1.368 -0.72,-4.32 0.936,-4.39199 5.184,-11.952 6.696,-13.464 -1.008,0.216 -2.088,-0.216 -3.024,-0.288 -2.304,-0.144 -3.312,1.584 -4.896,4.608 -1.872,3.528 -3.888,7.056 -6.408,10.08 -3.38399,4.032 -7.344,4.608 -6.624,-0.432 0.432,-2.736 2.376,-6.264 2.952,-7.272 2.592,-4.24799 6.336,-8.496 9.576,-10.296 2.664,-1.44 5.328,-0.864 6.12,1.8 1.224,0.216 1.8,-1.008 0.792,-2.088 -4.10399,-4.46399 -12.384,-1.79999 -16.704,3.312 -10.87199,13.03199 -5.39999,25.63199 2.88,17.712 2.088,-2.016 4.032,-4.896 5.184,-6.768 -2.16,7.55999 1.224,9.432 3.6,9.288 4.32,-0.36 8.712,-9 10.872,-13.392"
         style="font-size:72px;text-align:start;line-height:125%;writing-mode:lr-tb;text-anchor:start;fill:#093d5f;fill-opacity:1;font-family:Great Vibes;-inkscape-font-specification:Great Vibes"
         id="path3767"
         inkscape:connector-curvature="0" />
    </g>
    <g
       style="font-size:22px;font-style:normal;font-variant:normal;font-weight:normal;font-stretch:normal;text-align:start;line-height:125%;letter-spacing:0px;word-spacing:0px;writing-mode:lr-tb;text-anchor:start;fill:#294d50;fill-opacity:1;stroke:none;font-family:Open Sans;-inkscape-font-specification:Open Sans"
       id="text5133">
      <path
         d="m 246.73628,570.82159 -5.32812,-13.92187 -0.0859,0 c 0.10026,1.10288 0.15039,2.41342 0.15039,3.93164 l 0,9.99023 -1.68652,0 0,-15.70507 2.75,0 4.97363,12.95507 0.0859,0 5.0166,-12.95507 2.72851,0 0,15.70507 -1.82617,0 0,-10.11914 c -1e-5,-1.16014 0.0501,-2.42056 0.15039,-3.78125 l -0.0859,0 -5.3711,13.90039 -1.47168,0"
         style="line-height:125%;font-family:Open Sans;-inkscape-font-specification:Open Sans;fill:#294d50;fill-opacity:1"
         id="path3770" />
      <path
         d="m 266.60933,570.82159 -0.35449,-1.67578 -0.0859,0 c -0.58725,0.73763 -1.17449,1.23894 -1.76172,1.50391 -0.58008,0.25781 -1.30697,0.38672 -2.18066,0.38672 -1.16732,0 -2.08399,-0.30078 -2.75,-0.90235 -0.65886,-0.60156 -0.98829,-1.45735 -0.98828,-2.56738 -1e-5,-2.3776 1.90136,-3.62369 5.7041,-3.73828 l 1.99804,-0.0645 0,-0.73047 c 0,-0.92382 -0.20053,-1.60416 -0.60156,-2.04102 -0.39389,-0.444 -1.02767,-0.666 -1.90137,-0.66601 -0.98112,1e-5 -2.09115,0.30079 -3.33007,0.90234 l -0.54786,-1.36426 c 0.58008,-0.31509 1.21387,-0.56216 1.90137,-0.74121 0.69466,-0.17902 1.38932,-0.26854 2.08399,-0.26855 1.40363,1e-5 2.44204,0.31153 3.11523,0.93457 0.68033,0.62305 1.0205,1.62208 1.02051,2.99707 l 0,8.03515 -1.32129,0 m -4.02832,-1.25683 c 1.11002,0 1.98014,-0.30436 2.61035,-0.91309 0.63736,-0.60872 0.95605,-1.46093 0.95606,-2.55664 l 0,-1.06347 -1.78321,0.0752 c -1.41797,0.0501 -2.44206,0.27214 -3.07226,0.66602 -0.62305,0.38672 -0.93458,0.99186 -0.93457,1.81543 -10e-6,0.64453 0.19335,1.13509 0.58007,1.47168 0.39388,0.33659 0.94173,0.50488 1.64356,0.50488"
         style="line-height:125%;font-family:Open Sans;-inkscape-font-specification:Open Sans;fill:#294d50;fill-opacity:1"
         id="path3772" />
      <path
         d="m 273.37691,564.79523 c 0.30794,-0.43685 0.77701,-1.00976 1.40722,-1.71875 l 3.80274,-4.02832 2.11621,0 -4.76953,5.0166 5.10254,6.75683 -2.15918,0 -4.15723,-5.56445 -1.34277,1.16016 0,4.40429 -1.76172,0 0,-16.71484 1.76172,0 0,8.86231 c -1e-5,0.39388 -0.0287,1.00261 -0.0859,1.82617 l 0.0859,0"
         style="line-height:125%;font-family:Open Sans;-inkscape-font-specification:Open Sans;fill:#294d50;fill-opacity:1"
         id="path3774" />
      <path
         d="m 287.71773,571.03644 c -1.74024,0 -3.11524,-0.52995 -4.125,-1.58985 -1.00261,-1.05989 -1.50391,-2.53157 -1.50391,-4.41503 0,-1.89778 0.46549,-3.40527 1.39649,-4.52247 0.93814,-1.11717 2.19498,-1.67577 3.7705,-1.67578 1.47526,10e-6 2.64257,0.48699 3.50196,1.46094 0.85936,0.96681 1.28905,2.24513 1.28906,3.83496 l 0,1.12793 -8.11035,0 c 0.0358,1.38217 0.38313,2.43132 1.04199,3.14746 0.66601,0.71615 1.60058,1.07422 2.80371,1.07422 1.26757,0 2.52082,-0.26497 3.75977,-0.79492 l 0,1.58984 c -0.63022,0.27214 -1.2282,0.4655 -1.79395,0.58008 -0.5586,0.12175 -1.23536,0.18262 -2.03027,0.18262 m -0.4834,-10.70996 c -0.94532,1e-5 -1.70085,0.30795 -2.2666,0.92383 -0.5586,0.61589 -0.88803,1.4681 -0.98828,2.55664 l 6.15527,0 c -1e-5,-1.12435 -0.25066,-1.98372 -0.75195,-2.57813 -0.50131,-0.60155 -1.21746,-0.90233 -2.14844,-0.90234"
         style="line-height:125%;font-family:Open Sans;-inkscape-font-specification:Open Sans;fill:#294d50;fill-opacity:1"
         id="path3776" />
      <path
         d="m 300.44722,558.83331 c 0.52278,10e-6 0.99185,0.043 1.40723,0.12891 l -0.24707,1.6543 c -0.48699,-0.10742 -0.91668,-0.16113 -1.28907,-0.16114 -0.95248,10e-6 -1.76888,0.38673 -2.44922,1.16016 -0.67318,0.77345 -1.00976,1.73666 -1.00976,2.88965 l 0,6.3164 -1.7832,0 0,-11.77343 1.47168,0 0.2041,2.18066 0.0859,0 c 0.43685,-0.76626 0.96322,-1.35708 1.57911,-1.77246 0.61588,-0.41535 1.29263,-0.62304 2.03027,-0.62305"
         style="line-height:125%;font-family:Open Sans;-inkscape-font-specification:Open Sans;fill:#294d50;fill-opacity:1"
         id="path3778" />
      <path
         d="m 319.998,559.69269 c -10e-6,1.58985 -0.54428,2.81446 -1.63281,3.67383 -1.08139,0.85222 -2.63185,1.27832 -4.65137,1.27832 l -1.84765,0 0,6.17675 -1.82618,0 0,-15.70507 4.07129,0 c 3.92447,10e-6 5.88671,1.5254 5.88672,4.57617 m -8.13183,3.38379 1.64355,0 c 1.61848,0 2.78938,-0.26139 3.5127,-0.78418 0.72329,-0.52278 1.08495,-1.36067 1.08496,-2.51367 -10e-6,-1.0384 -0.34018,-1.81184 -1.02051,-2.32032 -0.68035,-0.50845 -1.74024,-0.76268 -3.17969,-0.76269 l -2.04101,0 0,6.38086"
         style="line-height:125%;font-family:Open Sans;-inkscape-font-specification:Open Sans;fill:#294d50;fill-opacity:1"
         id="path3780" />
      <path
         d="m 330.24605,570.82159 -0.35449,-1.67578 -0.0859,0 c -0.58725,0.73763 -1.17449,1.23894 -1.76172,1.50391 -0.58008,0.25781 -1.30697,0.38672 -2.18066,0.38672 -1.16733,0 -2.08399,-0.30078 -2.75,-0.90235 -0.65886,-0.60156 -0.98829,-1.45735 -0.98829,-2.56738 0,-2.3776 1.90137,-3.62369 5.70411,-3.73828 l 1.99804,-0.0645 0,-0.73047 c -10e-6,-0.92382 -0.20053,-1.60416 -0.60156,-2.04102 -0.39389,-0.444 -1.02768,-0.666 -1.90137,-0.66601 -0.98112,1e-5 -2.09115,0.30079 -3.33008,0.90234 l -0.54785,-1.36426 c 0.58008,-0.31509 1.21387,-0.56216 1.90137,-0.74121 0.69466,-0.17902 1.38932,-0.26854 2.08398,-0.26855 1.40364,1e-5 2.44205,0.31153 3.11524,0.93457 0.68033,0.62305 1.0205,1.62208 1.02051,2.99707 l 0,8.03515 -1.32129,0 m -4.02832,-1.25683 c 1.11002,0 1.98013,-0.30436 2.61035,-0.91309 0.63736,-0.60872 0.95605,-1.46093 0.95605,-2.55664 l 0,-1.06347 -1.7832,0.0752 c -1.41797,0.0501 -2.44206,0.27214 -3.07226,0.66602 -0.62305,0.38672 -0.93458,0.99186 -0.93458,1.81543 0,0.64453 0.19336,1.13509 0.58008,1.47168 0.39388,0.33659 0.94173,0.50488 1.64356,0.50488"
         style="line-height:125%;font-family:Open Sans;-inkscape-font-specification:Open Sans;fill:#294d50;fill-opacity:1"
         id="path3782" />
      <path
         d="m 340.623,558.83331 c 0.52278,10e-6 0.99185,0.043 1.40723,0.12891 l -0.24707,1.6543 c -0.48699,-0.10742 -0.91668,-0.16113 -1.28907,-0.16114 -0.95248,10e-6 -1.76888,0.38673 -2.44921,1.16016 -0.67318,0.77345 -1.00977,1.73666 -1.00977,2.88965 l 0,6.3164 -1.7832,0 0,-11.77343 1.47168,0 0.2041,2.18066 0.0859,0 c 0.43684,-0.76626 0.96321,-1.35708 1.5791,-1.77246 0.61588,-0.41535 1.29263,-0.62304 2.03027,-0.62305"
         style="line-height:125%;font-family:Open Sans;-inkscape-font-specification:Open Sans;fill:#294d50;fill-opacity:1"
         id="path3784" />
      <path
         d="m 348.03511,569.56476 c 0.3151,0 0.61946,-0.0215 0.91309,-0.0644 0.29361,-0.0501 0.52636,-0.10026 0.69824,-0.1504 l 0,1.36426 c -0.19337,0.0931 -0.47983,0.1683 -0.85938,0.22559 -0.3724,0.0644 -0.70899,0.0967 -1.00976,0.0967 -2.27735,0 -3.41602,-1.19955 -3.41602,-3.59863 l 0,-7.00391 -1.68652,0 0,-0.85938 1.68652,-0.74121 0.75196,-2.51367 1.03125,0 0,2.72852 3.41601,0 0,1.38574 -3.41601,0 0,6.92871 c -1e-5,0.70899 0.16829,1.25326 0.50488,1.63281 0.33658,0.37956 0.7985,0.56934 1.38574,0.56934"
         style="line-height:125%;font-family:Open Sans;-inkscape-font-specification:Open Sans;fill:#294d50;fill-opacity:1"
         id="path3786" />
      <path
         d="m 350.14058,559.04816 1.91211,0 2.57812,6.71386 c 0.56575,1.53256 0.91666,2.639 1.05274,3.31934 l 0.0859,0 c 0.0931,-0.36523 0.28645,-0.98828 0.58007,-1.86914 0.30078,-0.88802 1.27474,-3.60937 2.92188,-8.16406 l 1.91211,0 -5.05957,13.40625 c -0.50131,1.32486 -1.08855,2.26301 -1.76172,2.81445 -0.66602,0.55859 -1.48601,0.83789 -2.45996,0.83789 -0.54427,0 -1.08138,-0.0609 -1.61133,-0.18262 l 0,-1.42871 c 0.39388,0.0859 0.83431,0.1289 1.32129,0.12891 1.22461,-10e-6 2.0983,-0.6875 2.62109,-2.0625 l 0.65528,-1.67578 -4.74805,-11.83789"
         style="line-height:125%;font-family:Open Sans;-inkscape-font-specification:Open Sans;fill:#294d50;fill-opacity:1"
         id="path3788" />
      <path
         d="m 376.02925,570.82159 -5.32812,-13.92187 -0.0859,0 c 0.10026,1.10288 0.15039,2.41342 0.15039,3.93164 l 0,9.99023 -1.68652,0 0,-15.70507 2.75,0 4.97363,12.95507 0.0859,0 5.0166,-12.95507 2.72851,0 0,15.70507 -1.82617,0 0,-10.11914 c -10e-6,-1.16014 0.0501,-2.42056 0.15039,-3.78125 l -0.0859,0 -5.37109,13.90039 -1.47168,0"
         style="line-height:125%;font-family:Open Sans;-inkscape-font-specification:Open Sans;fill:#294d50;fill-opacity:1"
         id="path3790" />
      <path
         d="m 395.9023,570.82159 -0.35449,-1.67578 -0.0859,0 c -0.58725,0.73763 -1.17449,1.23894 -1.76172,1.50391 -0.58008,0.25781 -1.30697,0.38672 -2.18066,0.38672 -1.16733,0 -2.08399,-0.30078 -2.75,-0.90235 -0.65886,-0.60156 -0.98829,-1.45735 -0.98829,-2.56738 0,-2.3776 1.90137,-3.62369 5.70411,-3.73828 l 1.99804,-0.0645 0,-0.73047 c -10e-6,-0.92382 -0.20053,-1.60416 -0.60156,-2.04102 -0.39389,-0.444 -1.02768,-0.666 -1.90137,-0.66601 -0.98112,1e-5 -2.09115,0.30079 -3.33008,0.90234 l -0.54785,-1.36426 c 0.58008,-0.31509 1.21387,-0.56216 1.90137,-0.74121 0.69466,-0.17902 1.38932,-0.26854 2.08398,-0.26855 1.40364,1e-5 2.44205,0.31153 3.11524,0.93457 0.68033,0.62305 1.0205,1.62208 1.02051,2.99707 l 0,8.03515 -1.32129,0 m -4.02832,-1.25683 c 1.11002,0 1.98013,-0.30436 2.61035,-0.91309 0.63736,-0.60872 0.95605,-1.46093 0.95605,-2.55664 l 0,-1.06347 -1.7832,0.0752 c -1.41797,0.0501 -2.44206,0.27214 -3.07226,0.66602 -0.62305,0.38672 -0.93458,0.99186 -0.93458,1.81543 0,0.64453 0.19336,1.13509 0.58008,1.47168 0.39388,0.33659 0.94173,0.50488 1.64356,0.50488"
         style="line-height:125%;font-family:Open Sans;-inkscape-font-specification:Open Sans;fill:#294d50;fill-opacity:1"
         id="path3792" />
      <path
         d="m 408.9648,570.82159 0,-7.61621 c -1e-5,-0.95962 -0.21844,-1.67577 -0.65528,-2.14843 -0.43685,-0.47265 -1.12077,-0.70898 -2.05175,-0.70899 -1.23178,1e-5 -2.13412,0.33302 -2.70703,0.99902 -0.57293,0.66603 -0.85938,1.76531 -0.85938,3.29786 l 0,6.17675 -1.7832,0 0,-11.77343 1.45019,0 0.29004,1.61132 0.0859,0 c 0.36523,-0.58006 0.87727,-1.02765 1.53613,-1.34277 0.65885,-0.32225 1.3929,-0.48339 2.20215,-0.4834 1.41796,10e-6 2.48502,0.34376 3.20117,1.03125 0.71614,0.68035 1.07421,1.77247 1.07422,3.27637 l 0,7.68066 -1.7832,0"
         style="line-height:125%;font-family:Open Sans;-inkscape-font-specification:Open Sans;fill:#294d50;fill-opacity:1"
         id="path3794" />
      <path
         d="m 421.64058,570.82159 -0.35449,-1.67578 -0.0859,0 c -0.58725,0.73763 -1.17449,1.23894 -1.76172,1.50391 -0.58008,0.25781 -1.30697,0.38672 -2.18066,0.38672 -1.16732,0 -2.08399,-0.30078 -2.75,-0.90235 -0.65886,-0.60156 -0.98829,-1.45735 -0.98828,-2.56738 -1e-5,-2.3776 1.90136,-3.62369 5.7041,-3.73828 l 1.99804,-0.0645 0,-0.73047 c 0,-0.92382 -0.20053,-1.60416 -0.60156,-2.04102 -0.39389,-0.444 -1.02767,-0.666 -1.90137,-0.66601 -0.98112,1e-5 -2.09115,0.30079 -3.33007,0.90234 l -0.54786,-1.36426 c 0.58008,-0.31509 1.21387,-0.56216 1.90137,-0.74121 0.69466,-0.17902 1.38932,-0.26854 2.08399,-0.26855 1.40363,1e-5 2.44204,0.31153 3.11523,0.93457 0.68033,0.62305 1.0205,1.62208 1.02051,2.99707 l 0,8.03515 -1.32129,0 m -4.02832,-1.25683 c 1.11002,0 1.98014,-0.30436 2.61035,-0.91309 0.63736,-0.60872 0.95605,-1.46093 0.95606,-2.55664 l 0,-1.06347 -1.78321,0.0752 c -1.41797,0.0501 -2.44206,0.27214 -3.07226,0.66602 -0.62305,0.38672 -0.93458,0.99186 -0.93457,1.81543 -10e-6,0.64453 0.19335,1.13509 0.58007,1.47168 0.39388,0.33659 0.94173,0.50488 1.64356,0.50488"
         style="line-height:125%;font-family:Open Sans;-inkscape-font-specification:Open Sans;fill:#294d50;fill-opacity:1"
         id="path3796" />
      <path
         d="m 436.28218,559.04816 0,1.12793 -2.18066,0.25781 c 0.20051,0.25066 0.37954,0.58009 0.53711,0.98828 0.15754,0.40105 0.23631,0.8558 0.23632,1.36426 -1e-5,1.153 -0.39389,2.07325 -1.18164,2.76074 -0.78776,0.6875 -1.86914,1.03125 -3.24414,1.03125 -0.35091,0 -0.68034,-0.0286 -0.98828,-0.0859 -0.75912,0.40105 -1.13867,0.90593 -1.13867,1.51465 0,0.32227 0.13248,0.56218 0.39746,0.71973 0.26497,0.15039 0.71972,0.22559 1.36426,0.22558 l 2.08398,0 c 1.27473,10e-6 2.25227,0.26856 2.93262,0.80567 0.68749,0.53711 1.03124,1.31771 1.03125,2.34179 -1e-5,1.30339 -0.5228,2.29525 -1.56836,2.97559 -1.04558,0.6875 -2.57097,1.03125 -4.57617,1.03125 -1.53972,0 -2.72852,-0.28646 -3.56641,-0.85937 -0.83073,-0.57293 -1.24609,-1.38217 -1.24609,-2.42774 0,-0.71615 0.22916,-1.33561 0.6875,-1.8584 0.45833,-0.52278 1.10286,-0.87728 1.93359,-1.06347 -0.30078,-0.13607 -0.55501,-0.34733 -0.76269,-0.63379 -0.20053,-0.28646 -0.30079,-0.61947 -0.30078,-0.99903 -10e-6,-0.42968 0.11458,-0.80566 0.34375,-1.12793 0.22916,-0.32226 0.59081,-0.63378 1.08496,-0.93457 -0.60873,-0.25064 -1.10645,-0.67675 -1.49317,-1.27832 -0.37956,-0.60155 -0.56933,-1.28905 -0.56933,-2.0625 0,-1.28905 0.38671,-2.28091 1.16015,-2.97558 0.77344,-0.70181 1.86914,-1.05273 3.28711,-1.05274 0.61588,10e-6 1.17089,0.0716 1.66504,0.21485 l 4.07129,0 m -9.38867,13.75 c 0,0.63736 0.26855,1.12076 0.80566,1.45019 0.53711,0.32943 1.30696,0.49414 2.30957,0.49414 1.49674,0 2.60319,-0.22559 3.31934,-0.67676 0.7233,-0.44401 1.08495,-1.04915 1.08496,-1.81542 -1e-5,-0.63738 -0.19695,-1.08139 -0.59082,-1.33204 -0.39389,-0.24349 -1.1351,-0.36523 -2.22363,-0.36523 l -2.1377,0 c -0.80925,0 -1.43945,0.19336 -1.89062,0.58008 -0.45118,0.38672 -0.67676,0.94173 -0.67676,1.66504 m 0.9668,-9.9795 c -1e-5,0.82358 0.23274,1.44663 0.69824,1.86915 0.46549,0.42253 1.1136,0.63379 1.94433,0.63378 1.74023,10e-6 2.61035,-0.84504 2.61036,-2.53515 -1e-5,-1.76887 -0.88087,-2.65331 -2.64258,-2.65332 -0.8379,1e-5 -1.48243,0.22559 -1.9336,0.67676 -0.45117,0.45118 -0.67676,1.12077 -0.67675,2.00878"
         style="line-height:125%;font-family:Open Sans;-inkscape-font-specification:Open Sans;fill:#294d50;fill-opacity:1"
         id="path3798" />
      <path
         d="m 443.69429,571.03644 c -1.74024,0 -3.11524,-0.52995 -4.125,-1.58985 -1.00261,-1.05989 -1.50391,-2.53157 -1.50391,-4.41503 0,-1.89778 0.4655,-3.40527 1.39649,-4.52247 0.93815,-1.11717 2.19498,-1.67577 3.77051,-1.67578 1.47525,10e-6 2.64257,0.48699 3.50195,1.46094 0.85936,0.96681 1.28905,2.24513 1.28906,3.83496 l 0,1.12793 -8.11035,0 c 0.0358,1.38217 0.38313,2.43132 1.04199,3.14746 0.66601,0.71615 1.60058,1.07422 2.80371,1.07422 1.26757,0 2.52083,-0.26497 3.75977,-0.79492 l 0,1.58984 c -0.63022,0.27214 -1.2282,0.4655 -1.79395,0.58008 -0.5586,0.12175 -1.23536,0.18262 -2.03027,0.18262 m -0.4834,-10.70996 c -0.94532,1e-5 -1.70085,0.30795 -2.2666,0.92383 -0.5586,0.61589 -0.88802,1.4681 -0.98828,2.55664 l 6.15527,0 c -1e-5,-1.12435 -0.25066,-1.98372 -0.75195,-2.57813 -0.50131,-0.60155 -1.21746,-0.90233 -2.14844,-0.90234"
         style="line-height:125%;font-family:Open Sans;-inkscape-font-specification:Open Sans;fill:#294d50;fill-opacity:1"
         id="path3800" />
      <path
         d="m 456.42378,558.83331 c 0.52278,10e-6 0.99186,0.043 1.40723,0.12891 l -0.24707,1.6543 c -0.48699,-0.10742 -0.91668,-0.16113 -1.28906,-0.16114 -0.95248,10e-6 -1.76889,0.38673 -2.44922,1.16016 -0.67318,0.77345 -1.00977,1.73666 -1.00977,2.88965 l 0,6.3164 -1.7832,0 0,-11.77343 1.47168,0 0.2041,2.18066 0.0859,0 c 0.43684,-0.76626 0.96321,-1.35708 1.5791,-1.77246 0.61588,-0.41535 1.29264,-0.62304 2.03027,-0.62305"
         style="line-height:125%;font-family:Open Sans;-inkscape-font-specification:Open Sans;fill:#294d50;fill-opacity:1"
         id="path3802" />
    </g>
  </g>
</svg>
