<svg
   xmlns:dc="http://purl.org/dc/elements/1.1/"
   xmlns:cc="http://creativecommons.org/ns#"
   xmlns:rdf="http://www.w3.org/1999/02/22-rdf-syntax-ns#"
   xmlns:svg="http://www.w3.org/2000/svg"
   xmlns="http://www.w3.org/2000/svg"
   xmlns:sodipodi="http://sodipodi.sourceforge.net/DTD/sodipodi-0.dtd"
   xmlns:inkscape="http://www.inkscape.org/namespaces/inkscape"
   width="276"
   height="89"
   id="svg3785"
   version="1.1"
   inkscape:version="0.48.2 r9819"
   sodipodi:docname="lucy.svg">
  <defs
     id="defs3787" />
  <sodipodi:namedview
     id="base"
     pagecolor="#ffffff"
     bordercolor="#666666"
     borderopacity="1.0"
     inkscape:pageopacity="0.0"
     inkscape:pageshadow="2"
     inkscape:zoom="3.959798"
     inkscape:cx="139.85641"
     inkscape:cy="65.152275"
     inkscape:document-units="px"
     inkscape:current-layer="layer1"
     showgrid="false"
     fit-margin-top="0"
     fit-margin-left="0"
     fit-margin-right="0"
     fit-margin-bottom="0"
     inkscape:window-width="1408"
     inkscape:window-height="826"
     inkscape:window-x="20"
     inkscape:window-y="20"
     inkscape:window-maximized="0" />
  <metadata
     id="metadata3790">
    <rdf:RDF>
      <cc:Work
         rdf:about="">
        <dc:format>image/svg+xml</dc:format>
        <dc:type
           rdf:resource="http://purl.org/dc/dcmitype/StillImage" />
        <dc:title />
      </cc:Work>
    </rdf:RDF>
  </metadata>
  <g
     inkscape:label="Layer 1"
     inkscape:groupmode="layer"
     id="layer1"
     transform="translate(-237,-487.86218)">
    <g
       style="font-size:48px;font-style:normal;font-variant:normal;font-weight:normal;font-stretch:normal;line-height:125%;letter-spacing:0px;word-spacing:0px;fill:#093d5f;fill-opacity:1;stroke:none;font-family:Open Sans;-inkscape-font-specification:Open Sans"
       id="text4621"
       transform="translate(2,8)">
      <path
         d="m 304.38877,485.11051 c -0.504,-5.90399 -15.26401,-11.30397 -25.92,16.128 0,0 -5.256,13.464 -6.12,15.408 -23.11198,2.736 -18.28798,-22.536 -3.456,-24.336 3.168,-0.432 2.88,-1.944 -0.144,-1.224 -24.62397,5.616 -18.14398,28.008 2.592,27.36 -2.592,5.328 -4.824,9.64801 -7.56,13.896 -5.25599,-0.936 -12.96,-0.72 -18.072,0.792 -19.36798,5.832 -9.14398,22.10399 5.904,14.832 4.68,-2.232 9.00001,-6.48 12.744,-11.736 9.14399,1.8 19.08001,3.88801 26.064,10.08 4.896,4.248 4.68,11.52 3.528,14.04 -0.576,1.224 -2.16,3.816 0.936,2.16 0.576,-0.288 1.224,-0.864 1.8,-1.944 1.8,-3.024 0.28799,-11.52 -6.552,-16.848 -6.69599,-5.18399 -16.56001,-9 -23.616,-10.728 l 1.512,-2.448 c 2.592,-4.60799 4.248,-8.136 6.336,-12.384 15.33599,-2.592 31.248,-18.50401 30.024,-33.048 m -2.952,1.584 c 0.072,13.31999 -13.10401,26.64 -26.064,29.52 2.952,-6.11999 6.336,-12.528 6.336,-12.528 11.15999,-21.81598 19.656,-21.81599 19.728,-16.992 m -39.888,49.104 c -3.45599,4.896 -7.2,8.28 -11.088,10.152 -13.17599,6.33599 -21.31198,-5.4 -3.888,-9.864 4.68,-1.224 10.22401,-1.296 14.976,-0.288"
         style="font-size:72px;text-align:start;line-height:125%;writing-mode:lr-tb;text-anchor:start;fill:#093d5f;fill-opacity:1;font-family:Great Vibes;-inkscape-font-specification:Great Vibes"
         id="path4357"
         inkscape:connector-curvature="0" />
      <path
         d="m 415.17202,487.48651 c 2.664,-1.368 -0.576,-0.936 -3.384,0.072 -5.68799,1.944 -14.616,25.344 -15.696,28.368 -5.03999,0 -14.76001,-1.224 -24.408,-1.224 1.224,-3.096 6.552,-18.144 9.288,-23.472 2.88,0 8.496,-1.944 8.496,-5.328 0,-2.016 -2.016,-2.592 -4.104,-2.016 -2.304,0.72 -5.04,4.896 -5.544,5.76 -14.03998,1.368 -37.656,-0.50398 -42.192,17.712 -2.376,9.43199 5.76001,17.424 14.4,14.256 5.184,-1.872 9.936,-8.712 7.2,-14.688 -0.504,-1.08 -1.728,-0.648 -0.936,0.504 0.936,1.368 -1.008,10.872 -6.336,12.816 -7.27199,2.664 -11.88,-3.88801 -9.432,-11.736 5.184,-16.63198 22.17602,-15.552 36.288,-17.136 -1.512,3.024 -6.912,14.32801 -10.512,23.328 l -2.808,0 c -1.872,0.216 -3.816,1.656 -4.464,2.736 -1.08,1.872 1.152,1.152 1.944,0.792 1.368,-0.648 2.808,-1.152 4.32,-1.152 -4.75199,12.52799 -14.18402,27.07201 -34.344,31.608 -10.07999,2.232 -27.576,-1.58401 -25.56,-17.28 0.792,-5.97599 4.968,-10.368 7.344,-11.376 0.72,-0.288 1.368,-1.008 -0.144,-1.008 -2.304,0.072 -7.56,4.46401 -8.784,9.144 -4.67999,17.99998 11.44802,27.432 27.864,25.344 18.57598,-2.376 31.75201,-19.58402 37.368,-36.288 6.552,0.288 21.168,0.936 24.408,0.936 -1.728,4.968 -8.92799,22.32 -2.376,25.704 2.52,1.296 5.616,0.504 8.136,-1.944 3.24,-3.168 5.04001,-5.61601 8.784,-13.536 0.792,-1.728 -0.288,-2.088 -1.08,-0.504 -2.304,4.68 -5.328,10.296 -9,13.032 -1.584,1.152 -3.096,1.008 -4.032,0 -3.168,-3.456 2.448,-18.504 3.744,-22.752 2.088,-0.144 5.112,-0.648 6.984,-1.944 1.224,-0.864 0.792,-1.368 -0.576,-0.864 -1.152,0.432 -4.32,0.504 -5.76,0.504 5.76,-16.77598 13.536,-27.648 14.904,-28.368 m -29.088,-1.512 c 0.864,0 2.304,2.52 -3.816,3.456 1.008,-1.296 3.096,-3.816 3.816,-3.456"
         style="font-size:72px;text-align:start;line-height:125%;writing-mode:lr-tb;text-anchor:start;fill:#093d5f;fill-opacity:1;font-family:Great Vibes;-inkscape-font-specification:Great Vibes"
         id="path4359"
         inkscape:connector-curvature="0" />
      <path
         d="m 435.2499,528.23851 c 0.72,-1.44 -0.36,-1.872 -1.008,-0.576 -1.512,3.096 -6.26401,12.24 -9.288,12.096 -0.936,0 -1.296,-1.368 -0.72,-4.32 0.936,-4.39199 5.184,-11.952 6.696,-13.464 -1.008,0.216 -2.088,-0.216 -3.024,-0.288 -2.304,-0.144 -3.312,1.584 -4.896,4.608 -1.872,3.528 -3.88801,7.056 -6.408,10.08 -3.384,4.032 -7.344,4.608 -6.624,-0.432 0.432,-2.736 2.376,-6.264 2.952,-7.272 2.59199,-4.24799 6.336,-8.496 9.576,-10.296 2.66399,-1.44 5.328,-0.864 6.12,1.8 1.224,0.216 1.8,-1.008 0.792,-2.088 -4.104,-4.46399 -12.38401,-1.79999 -16.704,3.312 -10.87199,13.03199 -5.39999,25.63199 2.88,17.712 2.08799,-2.016 4.032,-4.896 5.184,-6.768 -2.16,7.55999 1.224,9.432 3.6,9.288 4.31999,-0.36 8.712,-9 10.872,-13.392"
         style="font-size:72px;text-align:start;line-height:125%;writing-mode:lr-tb;text-anchor:start;fill:#093d5f;fill-opacity:1;font-family:Great Vibes;-inkscape-font-specification:Great Vibes"
         id="path4361"
         inkscape:connector-curvature="0" />
      <path
         d="m 453.86977,528.31051 c 0.72,-1.44 -0.216,-1.944 -0.864,-0.72 -1.512,3.096 -5.976,12.096 -8.928,12.024 -4.31999,-0.216 3.024,-13.392 4.104,-15.624 0.864,-1.8 2.016,-4.536 1.512,-5.544 -3.52799,0.36 -7.272,0.432 -9.936,0.288 1.224,-0.864 3.528,-2.808 3.96,-4.824 1.008,-4.82399 -3.672,-6.62399 -4.392,-2.592 -1.44,8.06399 -5.4,18.93601 -11.088,26.424 -0.432,0.648 0,1.44 0.576,0.936 3.528,-3.384 6.984,-11.376 8.712,-15.912 l 0.864,-2.304 c 4.032,0.072 6.552,1.008 5.544,3.384 -0.792,1.8 -3.384,5.544 -4.464,8.496 -2.88,7.48799 1.512,9.648 3.96,9.072 4.68,-1.152 8.352,-8.784 10.44,-13.104"
         style="font-size:72px;text-align:start;line-height:125%;writing-mode:lr-tb;text-anchor:start;fill:#093d5f;fill-opacity:1;font-family:Great Vibes;-inkscape-font-specification:Great Vibes"
         id="path4363"
         inkscape:connector-curvature="0" />
      <path
         d="m 472.5729,528.31051 c 0.72,-1.44 -0.216,-1.944 -0.864,-0.72 -1.512,3.096 -5.97601,12.096 -8.928,12.024 -4.32,-0.216 3.024,-13.392 4.104,-15.624 0.864,-1.8 2.016,-4.536 1.512,-5.544 -3.528,0.36 -7.27201,0.432 -9.936,0.288 1.224,-0.864 3.528,-2.808 3.96,-4.824 1.008,-4.82399 -3.672,-6.62399 -4.392,-2.592 -1.44,8.06399 -5.40001,18.93601 -11.088,26.424 -0.432,0.648 0,1.44 0.576,0.936 3.52799,-3.384 6.984,-11.376 8.712,-15.912 l 0.864,-2.304 c 4.03199,0.072 6.552,1.008 5.544,3.384 -0.792,1.8 -3.384,5.544 -4.464,8.496 -2.88,7.48799 1.512,9.648 3.96,9.072 4.67999,-1.152 8.352,-8.784 10.44,-13.104"
         style="font-size:72px;text-align:start;line-height:125%;writing-mode:lr-tb;text-anchor:start;fill:#093d5f;fill-opacity:1;font-family:Great Vibes;-inkscape-font-specification:Great Vibes"
         id="path4365"
         inkscape:connector-curvature="0" />
      <path
         d="m 482.70802,511.39051 c 0.288,-1.656 -0.864,-2.952 -2.52,-2.952 -1.584,0 -3.168,1.296 -3.456,2.952 -0.216,1.656 0.864,2.952 2.52,2.952 1.656,0 3.168,-1.296 3.456,-2.952 m -10.152,23.976 c 0.144,-0.504 0.864,-2.088 0.864,-2.088 l 5.76,-13.464 c 0.792,-1.728 0.792,-2.52 -1.512,-2.52 l -3.96,0.072 c 0.288,0.36 1.296,1.656 0.72,3.024 l -4.608,11.736 c -1.512,3.744 -1.51199,9.36 3.888,9.36 5.328,0 9.432,-9.144 11.304,-13.176 0.648,-1.44 -0.36,-1.944 -0.936,-0.648 -2.016,4.032 -4.392,8.496 -6.768,10.872 -0.792,0.72 -2.16,1.512 -3.24,1.368 -2.016,-0.144 -2.16,-2.16 -1.512,-4.536"
         style="font-size:72px;text-align:start;line-height:125%;writing-mode:lr-tb;text-anchor:start;fill:#093d5f;fill-opacity:1;font-family:Great Vibes;-inkscape-font-specification:Great Vibes"
         id="path4367"
         inkscape:connector-curvature="0" />
      <path
         d="m 503.71965,527.87851 c 0.36,-0.72 -0.72,-1.152 -1.08,-0.432 -1.512,2.952 -3.744,7.416 -5.4,9.432 -1.8,2.16 -4.03201,3.672 -6.48,3.312 l -0.504,-0.072 c 2.80799,-1.872 4.968,-5.184 5.112,-7.992 0.144,-3.168 -1.44,-5.76 -2.592,-8.496 -1.08,-2.592 -1.8,-7.56 1.512,-9.144 0.72,-0.36 1.584,-0.216 2.304,0.072 1.296,0.648 1.584,-0.576 0.288,-1.224 -0.72,-0.36 -1.584,-0.504 -2.664,-0.36 -2.52,0.36 -4.68,3.384 -5.976,6.192 -1.872,4.104 -4.24801,8.784 -6.192,12.456 -3.456,0.144 -5.11199,10.152 3.6,10.152 0.936,0 1.944,-0.288 2.952,-0.72 8.13599,2.448 12.456,-7.2 15.12,-13.176 m -12.744,4.248 c -0.216,3.816 -1.584,6.264 -3.168,7.488 -1.656,-0.792 -3.168,-2.808 -3.024,-5.544 0.072,-2.376 -1.512,-2.304 -1.512,-2.304 1.728,-3.168 4.824,-9.432 6.768,-13.32 -0.576,3.24 1.152,9.14401 0.936,13.68 m -4.392,8.136 c -0.432,0.216 -0.936,0.288 -1.44,0.288 -2.808,0 -3.744,-3.384 -1.44,-5.688 0.144,2.736 1.368,4.464 2.88,5.4"
         style="font-size:72px;text-align:start;line-height:125%;writing-mode:lr-tb;text-anchor:start;fill:#093d5f;fill-opacity:1;font-family:Great Vibes;-inkscape-font-specification:Great Vibes"
         id="path4369"
         inkscape:connector-curvature="0" />
    </g>
    <g
       style="font-size:22px;font-style:normal;font-variant:normal;font-weight:normal;font-stretch:normal;text-align:start;line-height:125%;letter-spacing:0px;word-spacing:0px;writing-mode:lr-tb;text-anchor:start;fill:#294d50;fill-opacity:1;stroke:none;font-family:Open Sans;-inkscape-font-specification:Open Sans"
       id="text5133">
      <path
         d="m 246.73628,570.82159 -5.32812,-13.92187 -0.0859,0 c 0.10026,1.10288 0.15039,2.41342 0.15039,3.93164 l 0,9.99023 -1.68652,0 0,-15.70507 2.75,0 4.97363,12.95507 0.0859,0 5.0166,-12.95507 2.72851,0 0,15.70507 -1.82617,0 0,-10.11914 c -1e-5,-1.16014 0.0501,-2.42056 0.15039,-3.78125 l -0.0859,0 -5.3711,13.90039 -1.47168,0"
         style="line-height:125%;font-family:Open Sans;-inkscape-font-specification:Open Sans;fill:#294d50;fill-opacity:1"
         id="path3814" />
      <path
         d="m 266.60933,570.82159 -0.35449,-1.67578 -0.0859,0 c -0.58725,0.73763 -1.17449,1.23894 -1.76172,1.50391 -0.58008,0.25781 -1.30697,0.38672 -2.18066,0.38672 -1.16732,0 -2.08399,-0.30078 -2.75,-0.90235 -0.65886,-0.60156 -0.98829,-1.45735 -0.98828,-2.56738 -1e-5,-2.3776 1.90136,-3.62369 5.7041,-3.73828 l 1.99804,-0.0645 0,-0.73047 c 0,-0.92382 -0.20053,-1.60416 -0.60156,-2.04102 -0.39389,-0.444 -1.02767,-0.666 -1.90137,-0.66601 -0.98112,1e-5 -2.09115,0.30079 -3.33007,0.90234 l -0.54786,-1.36426 c 0.58008,-0.31509 1.21387,-0.56216 1.90137,-0.74121 0.69466,-0.17902 1.38932,-0.26854 2.08399,-0.26855 1.40363,1e-5 2.44204,0.31153 3.11523,0.93457 0.68033,0.62305 1.0205,1.62208 1.02051,2.99707 l 0,8.03515 -1.32129,0 m -4.02832,-1.25683 c 1.11002,0 1.98014,-0.30436 2.61035,-0.91309 0.63736,-0.60872 0.95605,-1.46093 0.95606,-2.55664 l 0,-1.06347 -1.78321,0.0752 c -1.41797,0.0501 -2.44206,0.27214 -3.07226,0.66602 -0.62305,0.38672 -0.93458,0.99186 -0.93457,1.81543 -10e-6,0.64453 0.19335,1.13509 0.58007,1.47168 0.39388,0.33659 0.94173,0.50488 1.64356,0.50488"
         style="line-height:125%;font-family:Open Sans;-inkscape-font-specification:Open Sans;fill:#294d50;fill-opacity:1"
         id="path3816" />
      <path
         d="m 273.37691,564.79523 c 0.30794,-0.43685 0.77701,-1.00976 1.40722,-1.71875 l 3.80274,-4.02832 2.11621,0 -4.76953,5.0166 5.10254,6.75683 -2.15918,0 -4.15723,-5.56445 -1.34277,1.16016 0,4.40429 -1.76172,0 0,-16.71484 1.76172,0 0,8.86231 c -1e-5,0.39388 -0.0287,1.00261 -0.0859,1.82617 l 0.0859,0"
         style="line-height:125%;font-family:Open Sans;-inkscape-font-specification:Open Sans;fill:#294d50;fill-opacity:1"
         id="path3818" />
      <path
         d="m 287.71773,571.03644 c -1.74024,0 -3.11524,-0.52995 -4.125,-1.58985 -1.00261,-1.05989 -1.50391,-2.53157 -1.50391,-4.41503 0,-1.89778 0.46549,-3.40527 1.39649,-4.52247 0.93814,-1.11717 2.19498,-1.67577 3.7705,-1.67578 1.47526,10e-6 2.64257,0.48699 3.50196,1.46094 0.85936,0.96681 1.28905,2.24513 1.28906,3.83496 l 0,1.12793 -8.11035,0 c 0.0358,1.38217 0.38313,2.43132 1.04199,3.14746 0.66601,0.71615 1.60058,1.07422 2.80371,1.07422 1.26757,0 2.52082,-0.26497 3.75977,-0.79492 l 0,1.58984 c -0.63022,0.27214 -1.2282,0.4655 -1.79395,0.58008 -0.5586,0.12175 -1.23536,0.18262 -2.03027,0.18262 m -0.4834,-10.70996 c -0.94532,1e-5 -1.70085,0.30795 -2.2666,0.92383 -0.5586,0.61589 -0.88803,1.4681 -0.98828,2.55664 l 6.15527,0 c -1e-5,-1.12435 -0.25066,-1.98372 -0.75195,-2.57813 -0.50131,-0.60155 -1.21746,-0.90233 -2.14844,-0.90234"
         style="line-height:125%;font-family:Open Sans;-inkscape-font-specification:Open Sans;fill:#294d50;fill-opacity:1"
         id="path3820" />
      <path
         d="m 300.44722,558.83331 c 0.52278,10e-6 0.99185,0.043 1.40723,0.12891 l -0.24707,1.6543 c -0.48699,-0.10742 -0.91668,-0.16113 -1.28907,-0.16114 -0.95248,10e-6 -1.76888,0.38673 -2.44922,1.16016 -0.67318,0.77345 -1.00976,1.73666 -1.00976,2.88965 l 0,6.3164 -1.7832,0 0,-11.77343 1.47168,0 0.2041,2.18066 0.0859,0 c 0.43685,-0.76626 0.96322,-1.35708 1.57911,-1.77246 0.61588,-0.41535 1.29263,-0.62304 2.03027,-0.62305"
         style="line-height:125%;font-family:Open Sans;-inkscape-font-specification:Open Sans;fill:#294d50;fill-opacity:1"
         id="path3822" />
      <path
         d="m 319.998,559.69269 c -10e-6,1.58985 -0.54428,2.81446 -1.63281,3.67383 -1.08139,0.85222 -2.63185,1.27832 -4.65137,1.27832 l -1.84765,0 0,6.17675 -1.82618,0 0,-15.70507 4.07129,0 c 3.92447,10e-6 5.88671,1.5254 5.88672,4.57617 m -8.13183,3.38379 1.64355,0 c 1.61848,0 2.78938,-0.26139 3.5127,-0.78418 0.72329,-0.52278 1.08495,-1.36067 1.08496,-2.51367 -10e-6,-1.0384 -0.34018,-1.81184 -1.02051,-2.32032 -0.68035,-0.50845 -1.74024,-0.76268 -3.17969,-0.76269 l -2.04101,0 0,6.38086"
         style="line-height:125%;font-family:Open Sans;-inkscape-font-specification:Open Sans;fill:#294d50;fill-opacity:1"
         id="path3824" />
      <path
         d="m 330.24605,570.82159 -0.35449,-1.67578 -0.0859,0 c -0.58725,0.73763 -1.17449,1.23894 -1.76172,1.50391 -0.58008,0.25781 -1.30697,0.38672 -2.18066,0.38672 -1.16733,0 -2.08399,-0.30078 -2.75,-0.90235 -0.65886,-0.60156 -0.98829,-1.45735 -0.98829,-2.56738 0,-2.3776 1.90137,-3.62369 5.70411,-3.73828 l 1.99804,-0.0645 0,-0.73047 c -10e-6,-0.92382 -0.20053,-1.60416 -0.60156,-2.04102 -0.39389,-0.444 -1.02768,-0.666 -1.90137,-0.66601 -0.98112,1e-5 -2.09115,0.30079 -3.33008,0.90234 l -0.54785,-1.36426 c 0.58008,-0.31509 1.21387,-0.56216 1.90137,-0.74121 0.69466,-0.17902 1.38932,-0.26854 2.08398,-0.26855 1.40364,1e-5 2.44205,0.31153 3.11524,0.93457 0.68033,0.62305 1.0205,1.62208 1.02051,2.99707 l 0,8.03515 -1.32129,0 m -4.02832,-1.25683 c 1.11002,0 1.98013,-0.30436 2.61035,-0.91309 0.63736,-0.60872 0.95605,-1.46093 0.95605,-2.55664 l 0,-1.06347 -1.7832,0.0752 c -1.41797,0.0501 -2.44206,0.27214 -3.07226,0.66602 -0.62305,0.38672 -0.93458,0.99186 -0.93458,1.81543 0,0.64453 0.19336,1.13509 0.58008,1.47168 0.39388,0.33659 0.94173,0.50488 1.64356,0.50488"
         style="line-height:125%;font-family:Open Sans;-inkscape-font-specification:Open Sans;fill:#294d50;fill-opacity:1"
         id="path3826" />
      <path
         d="m 340.623,558.83331 c 0.52278,10e-6 0.99185,0.043 1.40723,0.12891 l -0.24707,1.6543 c -0.48699,-0.10742 -0.91668,-0.16113 -1.28907,-0.16114 -0.95248,10e-6 -1.76888,0.38673 -2.44921,1.16016 -0.67318,0.77345 -1.00977,1.73666 -1.00977,2.88965 l 0,6.3164 -1.7832,0 0,-11.77343 1.47168,0 0.2041,2.18066 0.0859,0 c 0.43684,-0.76626 0.96321,-1.35708 1.5791,-1.77246 0.61588,-0.41535 1.29263,-0.62304 2.03027,-0.62305"
         style="line-height:125%;font-family:Open Sans;-inkscape-font-specification:Open Sans;fill:#294d50;fill-opacity:1"
         id="path3828" />
      <path
         d="m 348.03511,569.56476 c 0.3151,0 0.61946,-0.0215 0.91309,-0.0644 0.29361,-0.0501 0.52636,-0.10026 0.69824,-0.1504 l 0,1.36426 c -0.19337,0.0931 -0.47983,0.1683 -0.85938,0.22559 -0.3724,0.0644 -0.70899,0.0967 -1.00976,0.0967 -2.27735,0 -3.41602,-1.19955 -3.41602,-3.59863 l 0,-7.00391 -1.68652,0 0,-0.85938 1.68652,-0.74121 0.75196,-2.51367 1.03125,0 0,2.72852 3.41601,0 0,1.38574 -3.41601,0 0,6.92871 c -1e-5,0.70899 0.16829,1.25326 0.50488,1.63281 0.33658,0.37956 0.7985,0.56934 1.38574,0.56934"
         style="line-height:125%;font-family:Open Sans;-inkscape-font-specification:Open Sans;fill:#294d50;fill-opacity:1"
         id="path3830" />
      <path
         d="m 350.14058,559.04816 1.91211,0 2.57812,6.71386 c 0.56575,1.53256 0.91666,2.639 1.05274,3.31934 l 0.0859,0 c 0.0931,-0.36523 0.28645,-0.98828 0.58007,-1.86914 0.30078,-0.88802 1.27474,-3.60937 2.92188,-8.16406 l 1.91211,0 -5.05957,13.40625 c -0.50131,1.32486 -1.08855,2.26301 -1.76172,2.81445 -0.66602,0.55859 -1.48601,0.83789 -2.45996,0.83789 -0.54427,0 -1.08138,-0.0609 -1.61133,-0.18262 l 0,-1.42871 c 0.39388,0.0859 0.83431,0.1289 1.32129,0.12891 1.22461,-10e-6 2.0983,-0.6875 2.62109,-2.0625 l 0.65528,-1.67578 -4.74805,-11.83789"
         style="line-height:125%;font-family:Open Sans;-inkscape-font-specification:Open Sans;fill:#294d50;fill-opacity:1"
         id="path3832" />
      <path
         d="m 376.02925,570.82159 -5.32812,-13.92187 -0.0859,0 c 0.10026,1.10288 0.15039,2.41342 0.15039,3.93164 l 0,9.99023 -1.68652,0 0,-15.70507 2.75,0 4.97363,12.95507 0.0859,0 5.0166,-12.95507 2.72851,0 0,15.70507 -1.82617,0 0,-10.11914 c -10e-6,-1.16014 0.0501,-2.42056 0.15039,-3.78125 l -0.0859,0 -5.37109,13.90039 -1.47168,0"
         style="line-height:125%;font-family:Open Sans;-inkscape-font-specification:Open Sans;fill:#294d50;fill-opacity:1"
         id="path3834" />
      <path
         d="m 395.9023,570.82159 -0.35449,-1.67578 -0.0859,0 c -0.58725,0.73763 -1.17449,1.23894 -1.76172,1.50391 -0.58008,0.25781 -1.30697,0.38672 -2.18066,0.38672 -1.16733,0 -2.08399,-0.30078 -2.75,-0.90235 -0.65886,-0.60156 -0.98829,-1.45735 -0.98829,-2.56738 0,-2.3776 1.90137,-3.62369 5.70411,-3.73828 l 1.99804,-0.0645 0,-0.73047 c -10e-6,-0.92382 -0.20053,-1.60416 -0.60156,-2.04102 -0.39389,-0.444 -1.02768,-0.666 -1.90137,-0.66601 -0.98112,1e-5 -2.09115,0.30079 -3.33008,0.90234 l -0.54785,-1.36426 c 0.58008,-0.31509 1.21387,-0.56216 1.90137,-0.74121 0.69466,-0.17902 1.38932,-0.26854 2.08398,-0.26855 1.40364,1e-5 2.44205,0.31153 3.11524,0.93457 0.68033,0.62305 1.0205,1.62208 1.02051,2.99707 l 0,8.03515 -1.32129,0 m -4.02832,-1.25683 c 1.11002,0 1.98013,-0.30436 2.61035,-0.91309 0.63736,-0.60872 0.95605,-1.46093 0.95605,-2.55664 l 0,-1.06347 -1.7832,0.0752 c -1.41797,0.0501 -2.44206,0.27214 -3.07226,0.66602 -0.62305,0.38672 -0.93458,0.99186 -0.93458,1.81543 0,0.64453 0.19336,1.13509 0.58008,1.47168 0.39388,0.33659 0.94173,0.50488 1.64356,0.50488"
         style="line-height:125%;font-family:Open Sans;-inkscape-font-specification:Open Sans;fill:#294d50;fill-opacity:1"
         id="path3836" />
      <path
         d="m 408.9648,570.82159 0,-7.61621 c -1e-5,-0.95962 -0.21844,-1.67577 -0.65528,-2.14843 -0.43685,-0.47265 -1.12077,-0.70898 -2.05175,-0.70899 -1.23178,1e-5 -2.13412,0.33302 -2.70703,0.99902 -0.57293,0.66603 -0.85938,1.76531 -0.85938,3.29786 l 0,6.17675 -1.7832,0 0,-11.77343 1.45019,0 0.29004,1.61132 0.0859,0 c 0.36523,-0.58006 0.87727,-1.02765 1.53613,-1.34277 0.65885,-0.32225 1.3929,-0.48339 2.20215,-0.4834 1.41796,10e-6 2.48502,0.34376 3.20117,1.03125 0.71614,0.68035 1.07421,1.77247 1.07422,3.27637 l 0,7.68066 -1.7832,0"
         style="line-height:125%;font-family:Open Sans;-inkscape-font-specification:Open Sans;fill:#294d50;fill-opacity:1"
         id="path3838" />
      <path
         d="m 421.64058,570.82159 -0.35449,-1.67578 -0.0859,0 c -0.58725,0.73763 -1.17449,1.23894 -1.76172,1.50391 -0.58008,0.25781 -1.30697,0.38672 -2.18066,0.38672 -1.16732,0 -2.08399,-0.30078 -2.75,-0.90235 -0.65886,-0.60156 -0.98829,-1.45735 -0.98828,-2.56738 -1e-5,-2.3776 1.90136,-3.62369 5.7041,-3.73828 l 1.99804,-0.0645 0,-0.73047 c 0,-0.92382 -0.20053,-1.60416 -0.60156,-2.04102 -0.39389,-0.444 -1.02767,-0.666 -1.90137,-0.66601 -0.98112,1e-5 -2.09115,0.30079 -3.33007,0.90234 l -0.54786,-1.36426 c 0.58008,-0.31509 1.21387,-0.56216 1.90137,-0.74121 0.69466,-0.17902 1.38932,-0.26854 2.08399,-0.26855 1.40363,1e-5 2.44204,0.31153 3.11523,0.93457 0.68033,0.62305 1.0205,1.62208 1.02051,2.99707 l 0,8.03515 -1.32129,0 m -4.02832,-1.25683 c 1.11002,0 1.98014,-0.30436 2.61035,-0.91309 0.63736,-0.60872 0.95605,-1.46093 0.95606,-2.55664 l 0,-1.06347 -1.78321,0.0752 c -1.41797,0.0501 -2.44206,0.27214 -3.07226,0.66602 -0.62305,0.38672 -0.93458,0.99186 -0.93457,1.81543 -10e-6,0.64453 0.19335,1.13509 0.58007,1.47168 0.39388,0.33659 0.94173,0.50488 1.64356,0.50488"
         style="line-height:125%;font-family:Open Sans;-inkscape-font-specification:Open Sans;fill:#294d50;fill-opacity:1"
         id="path3840" />
      <path
         d="m 436.28218,559.04816 0,1.12793 -2.18066,0.25781 c 0.20051,0.25066 0.37954,0.58009 0.53711,0.98828 0.15754,0.40105 0.23631,0.8558 0.23632,1.36426 -1e-5,1.153 -0.39389,2.07325 -1.18164,2.76074 -0.78776,0.6875 -1.86914,1.03125 -3.24414,1.03125 -0.35091,0 -0.68034,-0.0286 -0.98828,-0.0859 -0.75912,0.40105 -1.13867,0.90593 -1.13867,1.51465 0,0.32227 0.13248,0.56218 0.39746,0.71973 0.26497,0.15039 0.71972,0.22559 1.36426,0.22558 l 2.08398,0 c 1.27473,10e-6 2.25227,0.26856 2.93262,0.80567 0.68749,0.53711 1.03124,1.31771 1.03125,2.34179 -1e-5,1.30339 -0.5228,2.29525 -1.56836,2.97559 -1.04558,0.6875 -2.57097,1.03125 -4.57617,1.03125 -1.53972,0 -2.72852,-0.28646 -3.56641,-0.85937 -0.83073,-0.57293 -1.24609,-1.38217 -1.24609,-2.42774 0,-0.71615 0.22916,-1.33561 0.6875,-1.8584 0.45833,-0.52278 1.10286,-0.87728 1.93359,-1.06347 -0.30078,-0.13607 -0.55501,-0.34733 -0.76269,-0.63379 -0.20053,-0.28646 -0.30079,-0.61947 -0.30078,-0.99903 -10e-6,-0.42968 0.11458,-0.80566 0.34375,-1.12793 0.22916,-0.32226 0.59081,-0.63378 1.08496,-0.93457 -0.60873,-0.25064 -1.10645,-0.67675 -1.49317,-1.27832 -0.37956,-0.60155 -0.56933,-1.28905 -0.56933,-2.0625 0,-1.28905 0.38671,-2.28091 1.16015,-2.97558 0.77344,-0.70181 1.86914,-1.05273 3.28711,-1.05274 0.61588,10e-6 1.17089,0.0716 1.66504,0.21485 l 4.07129,0 m -9.38867,13.75 c 0,0.63736 0.26855,1.12076 0.80566,1.45019 0.53711,0.32943 1.30696,0.49414 2.30957,0.49414 1.49674,0 2.60319,-0.22559 3.31934,-0.67676 0.7233,-0.44401 1.08495,-1.04915 1.08496,-1.81542 -1e-5,-0.63738 -0.19695,-1.08139 -0.59082,-1.33204 -0.39389,-0.24349 -1.1351,-0.36523 -2.22363,-0.36523 l -2.1377,0 c -0.80925,0 -1.43945,0.19336 -1.89062,0.58008 -0.45118,0.38672 -0.67676,0.94173 -0.67676,1.66504 m 0.9668,-9.9795 c -1e-5,0.82358 0.23274,1.44663 0.69824,1.86915 0.46549,0.42253 1.1136,0.63379 1.94433,0.63378 1.74023,10e-6 2.61035,-0.84504 2.61036,-2.53515 -1e-5,-1.76887 -0.88087,-2.65331 -2.64258,-2.65332 -0.8379,1e-5 -1.48243,0.22559 -1.9336,0.67676 -0.45117,0.45118 -0.67676,1.12077 -0.67675,2.00878"
         style="line-height:125%;font-family:Open Sans;-inkscape-font-specification:Open Sans;fill:#294d50;fill-opacity:1"
         id="path3842" />
      <path
         d="m 443.69429,571.03644 c -1.74024,0 -3.11524,-0.52995 -4.125,-1.58985 -1.00261,-1.05989 -1.50391,-2.53157 -1.50391,-4.41503 0,-1.89778 0.4655,-3.40527 1.39649,-4.52247 0.93815,-1.11717 2.19498,-1.67577 3.77051,-1.67578 1.47525,10e-6 2.64257,0.48699 3.50195,1.46094 0.85936,0.96681 1.28905,2.24513 1.28906,3.83496 l 0,1.12793 -8.11035,0 c 0.0358,1.38217 0.38313,2.43132 1.04199,3.14746 0.66601,0.71615 1.60058,1.07422 2.80371,1.07422 1.26757,0 2.52083,-0.26497 3.75977,-0.79492 l 0,1.58984 c -0.63022,0.27214 -1.2282,0.4655 -1.79395,0.58008 -0.5586,0.12175 -1.23536,0.18262 -2.03027,0.18262 m -0.4834,-10.70996 c -0.94532,1e-5 -1.70085,0.30795 -2.2666,0.92383 -0.5586,0.61589 -0.88802,1.4681 -0.98828,2.55664 l 6.15527,0 c -1e-5,-1.12435 -0.25066,-1.98372 -0.75195,-2.57813 -0.50131,-0.60155 -1.21746,-0.90233 -2.14844,-0.90234"
         style="line-height:125%;font-family:Open Sans;-inkscape-font-specification:Open Sans;fill:#294d50;fill-opacity:1"
         id="path3844" />
      <path
         d="m 456.42378,558.83331 c 0.52278,10e-6 0.99186,0.043 1.40723,0.12891 l -0.24707,1.6543 c -0.48699,-0.10742 -0.91668,-0.16113 -1.28906,-0.16114 -0.95248,10e-6 -1.76889,0.38673 -2.44922,1.16016 -0.67318,0.77345 -1.00977,1.73666 -1.00977,2.88965 l 0,6.3164 -1.7832,0 0,-11.77343 1.47168,0 0.2041,2.18066 0.0859,0 c 0.43684,-0.76626 0.96321,-1.35708 1.5791,-1.77246 0.61588,-0.41535 1.29264,-0.62304 2.03027,-0.62305"
         style="line-height:125%;font-family:Open Sans;-inkscape-font-specification:Open Sans;fill:#294d50;fill-opacity:1"
         id="path3846" />
    </g>
  </g>
</svg>
