<svg
   xmlns:dc="http://purl.org/dc/elements/1.1/"
   xmlns:cc="http://creativecommons.org/ns#"
   xmlns:rdf="http://www.w3.org/1999/02/22-rdf-syntax-ns#"
   xmlns:svg="http://www.w3.org/2000/svg"
   xmlns="http://www.w3.org/2000/svg"
   xmlns:sodipodi="http://sodipodi.sourceforge.net/DTD/sodipodi-0.dtd"
   xmlns:inkscape="http://www.inkscape.org/namespaces/inkscape"
   width="320"
   height="89"
   id="svg3785"
   version="1.1"
   inkscape:version="0.48.2 r9819"
   sodipodi:docname="mark.svg">
  <defs
     id="defs3787" />
  <sodipodi:namedview
     id="base"
     pagecolor="#ffffff"
     bordercolor="#666666"
     borderopacity="1.0"
     inkscape:pageopacity="0.0"
     inkscape:pageshadow="2"
     inkscape:zoom="3.959798"
     inkscape:cx="77.43308"
     inkscape:cy="34.847699"
     inkscape:document-units="px"
     inkscape:current-layer="layer1"
     showgrid="false"
     fit-margin-top="0"
     fit-margin-left="0"
     fit-margin-right="0"
     fit-margin-bottom="0"
     inkscape:window-width="1631"
     inkscape:window-height="964"
     inkscape:window-x="51"
     inkscape:window-y="147"
     inkscape:window-maximized="0" />
  <metadata
     id="metadata3790">
    <rdf:RDF>
      <cc:Work
         rdf:about="">
        <dc:format>image/svg+xml</dc:format>
        <dc:type
           rdf:resource="http://purl.org/dc/dcmitype/StillImage" />
        <dc:title />
      </cc:Work>
    </rdf:RDF>
  </metadata>
  <g
     inkscape:label="Layer 1"
     inkscape:groupmode="layer"
     id="layer1"
     transform="translate(-237,-487.86218)">
    <g
       style="font-size:48px;font-style:normal;font-variant:normal;font-weight:normal;font-stretch:normal;line-height:125%;letter-spacing:0px;word-spacing:0px;fill:#093d5f;fill-opacity:1;stroke:none;font-family:Open Sans;-inkscape-font-specification:Open Sans"
       id="text4621"
       transform="translate(2,6)">
      <path
         d="m 334.41277,548.54251 c -16.77598,0.72 -3.38399,-29.01601 2.88,-41.472 8.27999,-16.55998 -2.52001,-21.23998 -19.152,-0.432 -5.90399,7.34399 -11.304,14.97601 -14.256,19.584 2.952,-8.99999 6.192,-17.71201 7.056,-26.928 1.152,-12.23999 -10.728,-9.35999 -16.272,-2.664 -5.11199,6.192 -7.56,9.86401 -11.736,17.424 -1.224,2.304 -1.872,1.944 -0.936,-0.792 1.8,-4.75199 3.24,-9.792 3.744,-14.328 2.664,-28.65597 -36.64801,-14.39997 -47.016,9.792 -7.19999,17.13598 6.40801,27.72 17.064,23.328 15.55199,-6.47999 17.06399,-24.48 5.04,-22.752 -3.45599,0.432 -1.656,1.656 -0.36,1.512 11.44799,-1.512 4.60799,16.416 -4.608,19.872 -9.50399,3.456 -19.36799,-4.46402 -13.32,-21.24 6.98399,-19.15198 42.984,-39.31197 39.024,-10.656 -1.656,11.73599 -11.448,36.21601 -17.568,45.72 -0.72,2.304 4.752,2.232 5.904,-0.432 9.86399,-21.88798 13.46401,-30.60001 25.992,-46.152 5.688,-7.05599 11.808,-7.55999 10.656,1.728 -2.88,23.75998 -13.176,39.456 -14.328,41.832 -1.368,2.088 3.816,4.89599 6.552,-1.44 2.592,-6.26399 14.83201,-25.2 19.368,-30.816 12.95999,-16.19998 20.952,-16.91999 15.192,-3.672 -4.67999,10.65599 -10.512,21.81601 -11.376,30.456 -1.152,12.16799 8.352,13.392 11.304,13.68 2.88,0.288 3.888,-1.296 1.152,-1.152"
         style="font-size:72px;text-align:start;line-height:125%;writing-mode:lr-tb;text-anchor:start;fill:#093d5f;fill-opacity:1;font-family:Great Vibes;-inkscape-font-specification:Great Vibes"
         id="path3764"
         inkscape:connector-curvature="0" />
      <path
         d="m 414.6129,496.70251 c 4.46399,-3.672 2.73599,-9.576 -2.376,-12.096 -5.184,-2.592 -15.91201,-2.16 -23.112,0.36 -10.51199,3.744 -17.06399,14.40001 -6.336,21.528 5.39999,3.6 15.048,6.192 19.512,9.792 8.71199,7.05599 3.59998,19.44001 -8.496,25.776 -14.39999,7.48799 -40.248,5.61598 -40.104,-12.24 0.072,-4.60799 1.44,-9.432 4.032,-13.464 1.296,-2.088 3.024,-3.888 4.968,-5.4 2.37599,-1.8 0.288,-1.512 -0.72,-1.08 -7.056,3.312 -12.672,13.10401 -12.312,19.944 1.224,20.30398 31.89601,22.31999 48.168,12.6 12.16798,-7.27199 21.81598,-20.80801 7.128,-29.88 -5.328,-3.312 -12.60001,-5.832 -16.992,-8.496 -9.71999,-5.97599 -4.67999,-14.04 3.888,-17.136 23.18397,-8.27999 27.28799,9.576 18.288,10.656 -2.376,0.288 -2.304,1.944 -0.36,1.44 2.08799,-0.576 3.672,-1.368 4.824,-2.304"
         style="font-size:72px;text-align:start;line-height:125%;writing-mode:lr-tb;text-anchor:start;fill:#093d5f;fill-opacity:1;font-family:Great Vibes;-inkscape-font-specification:Great Vibes"
         id="path3766"
         inkscape:connector-curvature="0" />
      <path
         d="m 445.45702,528.23851 c 0.72,-1.44 -0.432,-1.944 -1.008,-0.648 -2.448,5.184 -6.048,12.024 -9.576,12.024 -1.008,-0.072 -2.016,-1.224 -1.368,-4.32 0.432,-2.448 2.808,-7.416 4.824,-11.448 2.16,-4.46399 2.88,-5.472 4.968,-7.128 l -3.888,0 c -1.368,0 -2.232,0.36 -2.808,1.512 -2.736,5.688 -6.696,14.11201 -10.728,18.792 -4.67999,5.4 -7.70399,2.51999 -4.248,-4.968 1.296,-2.736 4.536,-9.288 4.536,-9.288 1.944,-3.95999 2.952,-4.824 4.608,-6.048 l -4.392,0 c -1.368,0 -2.232,0.36 -2.808,1.512 -1.08,2.232 -2.592,5.184 -4.032,7.92 l -1.296,2.52 c -0.432,0.936 0.216,1.152 0.648,1.152 -1.296,2.592 -3.096,5.256 -2.448,8.352 0.576,2.736 3.096,3.24 4.536,3.24 3.528,0 7.272,-4.896 9.72,-9.216 -1.872,5.832 0.072,9.216 3.312,9.216 5.256,0 9.144,-8.28 11.448,-13.176"
         style="font-size:72px;text-align:start;line-height:125%;writing-mode:lr-tb;text-anchor:start;fill:#093d5f;fill-opacity:1;font-family:Great Vibes;-inkscape-font-specification:Great Vibes"
         id="path3768"
         inkscape:connector-curvature="0" />
      <path
         d="m 464.1354,528.31051 c 0.72,-1.44 -0.216,-1.944 -0.864,-0.72 -1.512,3.096 -5.97601,12.096 -8.928,12.024 -4.32,-0.216 3.024,-13.392 4.104,-15.624 0.864,-1.8 2.016,-4.536 1.512,-5.544 -3.528,0.36 -7.27201,0.432 -9.936,0.288 1.224,-0.864 3.528,-2.808 3.96,-4.824 1.008,-4.82399 -3.672,-6.62399 -4.392,-2.592 -1.44,8.06399 -5.40001,18.93601 -11.088,26.424 -0.432,0.648 0,1.44 0.576,0.936 3.52799,-3.384 6.984,-11.376 8.712,-15.912 l 0.864,-2.304 c 4.03199,0.072 6.552,1.008 5.544,3.384 -0.792,1.8 -3.384,5.544 -4.464,8.496 -2.88,7.48799 1.512,9.648 3.96,9.072 4.67999,-1.152 8.352,-8.784 10.44,-13.104"
         style="font-size:72px;text-align:start;line-height:125%;writing-mode:lr-tb;text-anchor:start;fill:#093d5f;fill-opacity:1;font-family:Great Vibes;-inkscape-font-specification:Great Vibes"
         id="path3770"
         inkscape:connector-curvature="0" />
      <path
         d="m 500.69452,528.23851 c 0.72,-1.44 -0.432,-1.944 -1.008,-0.648 -1.512,3.312 -6.12,12.456 -9.864,12.456 -0.936,0 -1.728,-0.648 -1.224,-3.6 1.008,-5.03999 8.64,-18.576 8.64,-18.576 -2.376,-0.864 -9.864,3.672 -13.32,6.768 -2.16,1.944 -4.536,4.68 -5.976,6.48 1.728,-3.528 3.96,-7.056 5.256,-10.08 0.648,-1.44 0.216,-2.664 -1.08,-3.168 -2.448,-0.864 -7.056,3.672 -10.512,6.768 -2.232,1.944 -4.536,4.68 -5.976,6.48 2.592,-5.18399 6.552,-12.384 8.712,-13.536 -1.008,0.216 -2.088,-0.216 -3.024,-0.288 -2.304,-0.144 -3.24,1.08 -5.112,4.536 -3.52799,6.47999 -6.336,13.17601 -9.792,20.016 0.72,-0.432 1.368,-0.36 2.376,-0.432 1.584,0 2.232,-0.072 2.736,-1.152 4.104,-7.91999 7.488,-11.808 9.936,-14.04 7.55999,-7.05599 5.256,-1.79999 2.88,3.096 -1.224,2.664 -2.52,5.04 -3.024,8.208 -0.36,2.088 0.648,3.96 2.304,3.96 0.936,-4.31999 7.056,-12.384 10.152,-15.264 5.544,-5.18399 6.84,-3.24 5.112,-0.432 -2.016,3.24 -3.384,5.688 -3.96,7.56 -2.16,6.69599 1.296,8.424 3.888,8.424 5.472,0 9.72,-9.144 11.88,-13.536"
         style="font-size:72px;text-align:start;line-height:125%;writing-mode:lr-tb;text-anchor:start;fill:#093d5f;fill-opacity:1;font-family:Great Vibes;-inkscape-font-specification:Great Vibes"
         id="path3772"
         inkscape:connector-curvature="0" />
      <path
         d="m 525.95302,528.23851 c 0.72,-1.44 -0.36,-1.872 -1.008,-0.576 -1.512,3.096 -6.264,12.24 -9.288,12.096 -0.936,0 -1.296,-1.368 -0.72,-4.32 0.936,-4.39199 5.184,-11.952 6.696,-13.464 -1.008,0.216 -2.088,-0.216 -3.024,-0.288 -2.304,-0.144 -3.312,1.584 -4.896,4.608 -1.872,3.528 -3.888,7.056 -6.408,10.08 -3.38399,4.032 -7.344,4.608 -6.624,-0.432 0.432,-2.736 2.376,-6.264 2.952,-7.272 2.592,-4.24799 6.336,-8.496 9.576,-10.296 2.664,-1.44 5.328,-0.864 6.12,1.8 1.224,0.216 1.8,-1.008 0.792,-2.088 -4.10399,-4.46399 -12.384,-1.79999 -16.704,3.312 -10.87199,13.03199 -5.39999,25.63199 2.88,17.712 2.088,-2.016 4.032,-4.896 5.184,-6.768 -2.16,7.55999 1.224,9.432 3.6,9.288 4.32,-0.36 8.712,-9 10.872,-13.392"
         style="font-size:72px;text-align:start;line-height:125%;writing-mode:lr-tb;text-anchor:start;fill:#093d5f;fill-opacity:1;font-family:Great Vibes;-inkscape-font-specification:Great Vibes"
         id="path3774"
         inkscape:connector-curvature="0" />
      <path
         d="m 550.0449,528.23851 c 0.72,-1.44 -0.432,-1.944 -1.008,-0.648 -1.512,3.024 -6.12001,12.456 -9.864,12.456 -0.936,0 -1.728,-0.648 -1.152,-3.6 0.936,-5.03999 8.64,-18.576 8.64,-18.576 -2.448,-0.864 -9.86401,3.672 -13.32,6.768 -2.232,1.944 -4.536,4.68 -5.976,6.48 2.59199,-5.18399 6.552,-12.384 8.712,-13.536 -1.008,0.216 -2.088,-0.216 -3.024,-0.288 -2.304,-0.144 -3.24001,1.08 -5.112,4.536 -3.528,6.47999 -6.48001,13.32001 -9.936,20.16 0.72,-0.432 1.368,-0.36 2.448,-0.432 1.512,0 2.16,-0.072 2.736,-1.08 4.03199,-7.99199 7.56,-12.024 10.008,-14.256 5.54399,-5.18399 6.84,-3.24 5.112,-0.432 -2.016,3.24 -3.384,5.688 -3.96,7.56 -2.16,6.69599 1.296,8.424 3.816,8.424 5.54399,0 9.72,-9.144 11.88,-13.536"
         style="font-size:72px;text-align:start;line-height:125%;writing-mode:lr-tb;text-anchor:start;fill:#093d5f;fill-opacity:1;font-family:Great Vibes;-inkscape-font-specification:Great Vibes"
         id="path3776"
         inkscape:connector-curvature="0" />
    </g>
    <g
       style="font-size:22px;font-style:normal;font-variant:normal;font-weight:normal;font-stretch:normal;text-align:start;line-height:125%;letter-spacing:0px;word-spacing:0px;writing-mode:lr-tb;text-anchor:start;fill:#294d50;fill-opacity:1;stroke:none;font-family:Open Sans;-inkscape-font-specification:Open Sans"
       id="text5133">
      <path
         d="m 248.54097,570.82159 -8.75488,0 0,-15.70507 8.75488,0 0,1.62207 -6.92871,0 0,5.05957 6.50976,0 0,1.61132 -6.50976,0 0,5.7793 6.92871,0 0,1.63281"
         style="line-height:125%;fill:#294d50;fill-opacity:1;font-family:Open Sans;-inkscape-font-specification:Open Sans"
         id="path3779"
         inkscape:connector-curvature="0" />
      <path
         d="m 254.59956,564.79523 -4.09277,-5.74707 2.03027,0 3.1045,4.51172 3.09375,-4.51172 2.00878,0 -4.09277,5.74707 4.30762,6.02636 -2.01953,0 -3.29785,-4.76953 -3.33008,4.76953 -2.01953,0 4.30761,-6.02636"
         style="line-height:125%;fill:#294d50;fill-opacity:1;font-family:Open Sans;-inkscape-font-specification:Open Sans"
         id="path3781"
         inkscape:connector-curvature="0" />
      <path
         d="m 267.8232,571.03644 c -1.74024,0 -3.11524,-0.52995 -4.125,-1.58985 -1.00261,-1.05989 -1.50391,-2.53157 -1.50391,-4.41503 0,-1.89778 0.46549,-3.40527 1.39648,-4.52247 0.93815,-1.11717 2.19499,-1.67577 3.77051,-1.67578 1.47525,10e-6 2.64257,0.48699 3.50196,1.46094 0.85936,0.96681 1.28905,2.24513 1.28906,3.83496 l 0,1.12793 -8.11035,0 c 0.0358,1.38217 0.38313,2.43132 1.04199,3.14746 0.66601,0.71615 1.60058,1.07422 2.80371,1.07422 1.26757,0 2.52082,-0.26497 3.75977,-0.79492 l 0,1.58984 c -0.63022,0.27214 -1.2282,0.4655 -1.79395,0.58008 -0.5586,0.12175 -1.23536,0.18262 -2.03027,0.18262 m -0.4834,-10.70996 c -0.94532,1e-5 -1.70085,0.30795 -2.2666,0.92383 -0.5586,0.61589 -0.88803,1.4681 -0.98828,2.55664 l 6.15527,0 c -10e-6,-1.12435 -0.25066,-1.98372 -0.75195,-2.57813 -0.50131,-0.60155 -1.21746,-0.90233 -2.14844,-0.90234"
         style="line-height:125%;fill:#294d50;fill-opacity:1;font-family:Open Sans;-inkscape-font-specification:Open Sans"
         id="path3783"
         inkscape:connector-curvature="0" />
      <path
         d="m 279.88667,571.03644 c -1.70443,0 -3.02572,-0.52279 -3.96386,-1.56836 -0.931,-1.05273 -1.39649,-2.53873 -1.39649,-4.45801 0,-1.96939 0.47266,-3.4912 1.41797,-4.56543 0.95247,-1.07421 2.30598,-1.61132 4.06055,-1.61133 0.56574,10e-6 1.1315,0.0609 1.69726,0.18262 0.56575,0.12176 1.00976,0.26499 1.33203,0.42969 l -0.54785,1.51465 c -0.39389,-0.15755 -0.82357,-0.28645 -1.28906,-0.38672 -0.4655,-0.10741 -0.87729,-0.16113 -1.23535,-0.16114 -2.39193,10e-6 -3.5879,1.5254 -3.58789,4.57618 -1e-5,1.44662 0.29003,2.55664 0.87011,3.33007 0.58724,0.77344 1.45378,1.16016 2.59961,1.16016 0.98112,0 1.9873,-0.21126 3.01856,-0.63379 l 0,1.5791 c -0.78777,0.40821 -1.77963,0.61231 -2.97559,0.61231"
         style="line-height:125%;fill:#294d50;fill-opacity:1;font-family:Open Sans;-inkscape-font-specification:Open Sans"
         id="path3785"
         inkscape:connector-curvature="0" />
      <path
         d="m 287.34175,559.04816 0,7.63769 c 0,0.95964 0.21842,1.67579 0.65527,2.14844 0.43685,0.47266 1.12077,0.70899 2.05176,0.70898 1.23177,10e-6 2.13053,-0.33658 2.69629,-1.00976 0.57291,-0.67318 0.85937,-1.77246 0.85938,-3.29785 l 0,-6.1875 1.7832,0 0,11.77343 -1.47168,0 -0.25781,-1.5791 -0.0967,0 c -0.36525,0.58008 -0.87371,1.02409 -1.52539,1.33203 -0.64454,0.30795 -1.38217,0.46192 -2.21289,0.46192 -1.4323,0 -2.50652,-0.34017 -3.22266,-1.02051 -0.70899,-0.68034 -1.06348,-1.76888 -1.06348,-3.26562 l 0,-7.70215 1.80469,0"
         style="line-height:125%;fill:#294d50;fill-opacity:1;font-family:Open Sans;-inkscape-font-specification:Open Sans"
         id="path3787"
         inkscape:connector-curvature="0" />
      <path
         d="m 302.96089,569.56476 c 0.3151,0 0.61946,-0.0215 0.91309,-0.0644 0.29361,-0.0501 0.52636,-0.10026 0.69824,-0.1504 l 0,1.36426 c -0.19337,0.0931 -0.47982,0.1683 -0.85938,0.22559 -0.3724,0.0644 -0.70899,0.0967 -1.00976,0.0967 -2.27735,0 -3.41602,-1.19955 -3.41602,-3.59863 l 0,-7.00391 -1.68652,0 0,-0.85938 1.68652,-0.74121 0.75196,-2.51367 1.03125,0 0,2.72852 3.41601,0 0,1.38574 -3.41601,0 0,6.92871 c -10e-6,0.70899 0.16829,1.25326 0.50488,1.63281 0.33658,0.37956 0.7985,0.56934 1.38574,0.56934"
         style="line-height:125%;fill:#294d50;fill-opacity:1;font-family:Open Sans;-inkscape-font-specification:Open Sans"
         id="path3789"
         inkscape:connector-curvature="0" />
      <path
         d="m 308.7187,570.82159 -1.7832,0 0,-11.77343 1.7832,0 0,11.77343 m -1.93359,-14.96386 c 0,-0.40819 0.10026,-0.70539 0.30078,-0.8916 0.20052,-0.19335 0.45117,-0.29003 0.75195,-0.29004 0.28646,10e-6 0.53353,0.0967 0.74122,0.29004 0.20767,0.19337 0.31152,0.49057 0.31152,0.8916 0,0.40105 -0.10385,0.70183 -0.31152,0.90234 -0.20769,0.19337 -0.45476,0.29005 -0.74122,0.29004 -0.30078,10e-6 -0.55143,-0.0967 -0.75195,-0.29004 -0.20052,-0.20051 -0.30078,-0.50129 -0.30078,-0.90234"
         style="line-height:125%;fill:#294d50;fill-opacity:1;font-family:Open Sans;-inkscape-font-specification:Open Sans"
         id="path3791"
         inkscape:connector-curvature="0" />
      <path
         d="m 315.09956,570.82159 -4.46875,-11.77343 1.91211,0 2.53516,6.98242 c 0.57291,1.63281 0.9095,2.69271 1.00976,3.17969 l 0.0859,0 c 0.0788,-0.37956 0.32584,-1.16374 0.74121,-2.35254 0.42252,-1.19596 1.36425,-3.79915 2.8252,-7.80957 l 1.91211,0 -4.46875,11.77343 -2.08399,0"
         style="line-height:125%;fill:#294d50;fill-opacity:1;font-family:Open Sans;-inkscape-font-specification:Open Sans"
         id="path3793"
         inkscape:connector-curvature="0" />
      <path
         d="m 328.53804,571.03644 c -1.74024,0 -3.11524,-0.52995 -4.125,-1.58985 -1.00261,-1.05989 -1.50391,-2.53157 -1.50391,-4.41503 0,-1.89778 0.4655,-3.40527 1.39649,-4.52247 0.93815,-1.11717 2.19498,-1.67577 3.77051,-1.67578 1.47525,10e-6 2.64257,0.48699 3.50195,1.46094 0.85936,0.96681 1.28905,2.24513 1.28906,3.83496 l 0,1.12793 -8.11035,0 c 0.0358,1.38217 0.38313,2.43132 1.04199,3.14746 0.66601,0.71615 1.60058,1.07422 2.80371,1.07422 1.26757,0 2.52083,-0.26497 3.75977,-0.79492 l 0,1.58984 c -0.63022,0.27214 -1.2282,0.4655 -1.79395,0.58008 -0.5586,0.12175 -1.23536,0.18262 -2.03027,0.18262 m -0.4834,-10.70996 c -0.94532,1e-5 -1.70085,0.30795 -2.2666,0.92383 -0.5586,0.61589 -0.88802,1.4681 -0.98828,2.55664 l 6.15527,0 c -1e-5,-1.12435 -0.25066,-1.98372 -0.75195,-2.57813 -0.50131,-0.60155 -1.21746,-0.90233 -2.14844,-0.90234"
         style="line-height:125%;fill:#294d50;fill-opacity:1;font-family:Open Sans;-inkscape-font-specification:Open Sans"
         id="path3795"
         inkscape:connector-curvature="0" />
      <path
         d="m 354.41597,562.81866 c -1e-5,2.59246 -0.70542,4.57618 -2.11621,5.95118 -1.40366,1.36784 -3.42677,2.05175 -6.06934,2.05175 l -4.35058,0 0,-15.70507 4.8125,0 c 2.44204,10e-6 4.33983,0.67677 5.69336,2.03027 1.3535,1.35353 2.03026,3.24415 2.03027,5.67187 m -1.93359,0.0645 c -2e-5,-2.04817 -0.51564,-3.59146 -1.54688,-4.62989 -1.0241,-1.03839 -2.54949,-1.5576 -4.57617,-1.55761 l -2.65332,0 0,12.54687 2.22363,0 c 2.17708,0 3.81347,-0.53352 4.90918,-1.60058 1.09569,-1.07422 1.64354,-2.66048 1.64356,-4.75879"
         style="line-height:125%;fill:#294d50;fill-opacity:1;font-family:Open Sans;-inkscape-font-specification:Open Sans"
         id="path3797"
         inkscape:connector-curvature="0" />
      <path
         d="m 359.42183,570.82159 -1.7832,0 0,-11.77343 1.7832,0 0,11.77343 m -1.93359,-14.96386 c -1e-5,-0.40819 0.10025,-0.70539 0.30078,-0.8916 0.20052,-0.19335 0.45117,-0.29003 0.75195,-0.29004 0.28646,10e-6 0.53353,0.0967 0.74121,0.29004 0.20768,0.19337 0.31152,0.49057 0.31152,0.8916 0,0.40105 -0.10384,0.70183 -0.31152,0.90234 -0.20768,0.19337 -0.45475,0.29005 -0.74121,0.29004 -0.30078,10e-6 -0.55143,-0.0967 -0.75195,-0.29004 -0.20053,-0.20051 -0.30079,-0.50129 -0.30078,-0.90234"
         style="line-height:125%;fill:#294d50;fill-opacity:1;font-family:Open Sans;-inkscape-font-specification:Open Sans"
         id="path3799"
         inkscape:connector-curvature="0" />
      <path
         d="m 368.59566,558.83331 c 0.52278,10e-6 0.99185,0.043 1.40722,0.12891 l -0.24707,1.6543 c -0.48698,-0.10742 -0.91667,-0.16113 -1.28906,-0.16114 -0.95248,10e-6 -1.76888,0.38673 -2.44922,1.16016 -0.67318,0.77345 -1.00977,1.73666 -1.00976,2.88965 l 0,6.3164 -1.78321,0 0,-11.77343 1.47168,0 0.2041,2.18066 0.0859,0 c 0.43685,-0.76626 0.96321,-1.35708 1.5791,-1.77246 0.61588,-0.41535 1.29264,-0.62304 2.03028,-0.62305"
         style="line-height:125%;fill:#294d50;fill-opacity:1;font-family:Open Sans;-inkscape-font-specification:Open Sans"
         id="path3801"
         inkscape:connector-curvature="0" />
      <path
         d="m 376.74898,571.03644 c -1.74024,0 -3.11524,-0.52995 -4.125,-1.58985 -1.00261,-1.05989 -1.50391,-2.53157 -1.50391,-4.41503 0,-1.89778 0.46549,-3.40527 1.39649,-4.52247 0.93814,-1.11717 2.19498,-1.67577 3.7705,-1.67578 1.47526,10e-6 2.64257,0.48699 3.50196,1.46094 0.85936,0.96681 1.28905,2.24513 1.28906,3.83496 l 0,1.12793 -8.11035,0 c 0.0358,1.38217 0.38313,2.43132 1.04199,3.14746 0.66601,0.71615 1.60058,1.07422 2.80371,1.07422 1.26757,0 2.52082,-0.26497 3.75977,-0.79492 l 0,1.58984 c -0.63022,0.27214 -1.2282,0.4655 -1.79395,0.58008 -0.5586,0.12175 -1.23536,0.18262 -2.03027,0.18262 m -0.4834,-10.70996 c -0.94532,1e-5 -1.70085,0.30795 -2.2666,0.92383 -0.5586,0.61589 -0.88803,1.4681 -0.98828,2.55664 l 6.15527,0 c -1e-5,-1.12435 -0.25066,-1.98372 -0.75195,-2.57813 -0.50131,-0.60155 -1.21746,-0.90233 -2.14844,-0.90234"
         style="line-height:125%;fill:#294d50;fill-opacity:1;font-family:Open Sans;-inkscape-font-specification:Open Sans"
         id="path3803"
         inkscape:connector-curvature="0" />
      <path
         d="m 388.81245,571.03644 c -1.70443,0 -3.02572,-0.52279 -3.96386,-1.56836 -0.93099,-1.05273 -1.39649,-2.53873 -1.39649,-4.45801 0,-1.96939 0.47266,-3.4912 1.41797,-4.56543 0.95247,-1.07421 2.30599,-1.61132 4.06055,-1.61133 0.56575,10e-6 1.1315,0.0609 1.69726,0.18262 0.56575,0.12176 1.00976,0.26499 1.33204,0.42969 l -0.54786,1.51465 c -0.39389,-0.15755 -0.82357,-0.28645 -1.28906,-0.38672 -0.4655,-0.10741 -0.87728,-0.16113 -1.23535,-0.16114 -2.39193,10e-6 -3.58789,1.5254 -3.58789,4.57618 0,1.44662 0.29003,2.55664 0.87012,3.33007 0.58723,0.77344 1.45377,1.16016 2.59961,1.16016 0.98111,0 1.98729,-0.21126 3.01855,-0.63379 l 0,1.5791 c -0.78777,0.40821 -1.77963,0.61231 -2.97559,0.61231"
         style="line-height:125%;fill:#294d50;fill-opacity:1;font-family:Open Sans;-inkscape-font-specification:Open Sans"
         id="path3805"
         inkscape:connector-curvature="0" />
      <path
         d="m 398.39449,569.56476 c 0.31509,0 0.61946,-0.0215 0.91308,-0.0644 0.29361,-0.0501 0.52636,-0.10026 0.69824,-0.1504 l 0,1.36426 c -0.19336,0.0931 -0.47982,0.1683 -0.85937,0.22559 -0.3724,0.0644 -0.70899,0.0967 -1.00977,0.0967 -2.27734,0 -3.41601,-1.19955 -3.41601,-3.59863 l 0,-7.00391 -1.68653,0 0,-0.85938 1.68653,-0.74121 0.75195,-2.51367 1.03125,0 0,2.72852 3.41602,0 0,1.38574 -3.41602,0 0,6.92871 c 0,0.70899 0.16829,1.25326 0.50488,1.63281 0.33659,0.37956 0.7985,0.56934 1.38575,0.56934"
         style="line-height:125%;fill:#294d50;fill-opacity:1;font-family:Open Sans;-inkscape-font-specification:Open Sans"
         id="path3807"
         inkscape:connector-curvature="0" />
      <path
         d="m 412.5312,564.92413 c -1e-5,1.91928 -0.48341,3.4196 -1.45019,4.50098 -0.96681,1.07422 -2.30242,1.61133 -4.00684,1.61133 -1.05274,0 -1.98731,-0.24707 -2.80371,-0.74121 -0.81641,-0.49414 -1.44661,-1.20313 -1.89062,-2.12696 -0.44401,-0.92382 -0.66602,-2.0052 -0.66602,-3.24414 0,-1.91926 0.47982,-3.41242 1.43945,-4.47949 0.95964,-1.07421 2.29167,-1.61132 3.9961,-1.61133 1.64713,10e-6 2.95409,0.54787 3.9209,1.64356 0.97394,1.09571 1.46092,2.57813 1.46093,4.44726 m -8.96972,0 c -1e-5,1.50391 0.30078,2.64975 0.90234,3.4375 0.60156,0.78777 1.486,1.18165 2.65332,1.18164 1.16731,10e-6 2.05175,-0.39029 2.65332,-1.17089 0.60872,-0.78776 0.91308,-1.93717 0.91309,-3.44825 -1e-5,-1.49673 -0.30437,-2.63182 -0.91309,-3.40527 -0.60157,-0.78059 -1.49317,-1.17089 -2.6748,-1.1709 -1.16733,1e-5 -2.04818,0.38315 -2.64258,1.14942 -0.59441,0.76628 -0.89161,1.90853 -0.8916,3.42675"
         style="line-height:125%;fill:#294d50;fill-opacity:1;font-family:Open Sans;-inkscape-font-specification:Open Sans"
         id="path3809"
         inkscape:connector-curvature="0" />
      <path
         d="m 421.01753,558.83331 c 0.52278,10e-6 0.99186,0.043 1.40723,0.12891 l -0.24707,1.6543 c -0.48699,-0.10742 -0.91668,-0.16113 -1.28906,-0.16114 -0.95248,10e-6 -1.76889,0.38673 -2.44922,1.16016 -0.67318,0.77345 -1.00977,1.73666 -1.00977,2.88965 l 0,6.3164 -1.7832,0 0,-11.77343 1.47168,0 0.2041,2.18066 0.0859,0 c 0.43684,-0.76626 0.96321,-1.35708 1.5791,-1.77246 0.61588,-0.41535 1.29264,-0.62304 2.03027,-0.62305"
         style="line-height:125%;fill:#294d50;fill-opacity:1;font-family:Open Sans;-inkscape-font-specification:Open Sans"
         id="path3811"
         inkscape:connector-curvature="0" />
    </g>
  </g>
</svg>
