<svg
   xmlns:dc="http://purl.org/dc/elements/1.1/"
   xmlns:cc="http://creativecommons.org/ns#"
   xmlns:rdf="http://www.w3.org/1999/02/22-rdf-syntax-ns#"
   xmlns:svg="http://www.w3.org/2000/svg"
   xmlns="http://www.w3.org/2000/svg"
   xmlns:sodipodi="http://sodipodi.sourceforge.net/DTD/sodipodi-0.dtd"
   xmlns:inkscape="http://www.inkscape.org/namespaces/inkscape"
   width="300"
   height="89"
   id="svg3785"
   version="1.1"
   inkscape:version="0.48.2 r9819"
   sodipodi:docname="william.svg">
  <defs
     id="defs3787" />
  <sodipodi:namedview
     id="base"
     pagecolor="#ffffff"
     bordercolor="#666666"
     borderopacity="1.0"
     inkscape:pageopacity="0.0"
     inkscape:pageshadow="2"
     inkscape:zoom="3.959798"
     inkscape:cx="77.415295"
     inkscape:cy="48.423472"
     inkscape:document-units="px"
     inkscape:current-layer="layer1"
     showgrid="false"
     fit-margin-top="0"
     fit-margin-left="0"
     fit-margin-right="0"
     fit-margin-bottom="0"
     inkscape:window-width="1408"
     inkscape:window-height="826"
     inkscape:window-x="20"
     inkscape:window-y="20"
     inkscape:window-maximized="0" />
  <metadata
     id="metadata3790">
    <rdf:RDF>
      <cc:Work
         rdf:about="">
        <dc:format>image/svg+xml</dc:format>
        <dc:type
           rdf:resource="http://purl.org/dc/dcmitype/StillImage" />
        <dc:title />
      </cc:Work>
    </rdf:RDF>
  </metadata>
  <g
     inkscape:label="Layer 1"
     inkscape:groupmode="layer"
     id="layer1"
     transform="translate(-237,-487.86218)">
    <g
       style="font-size:48px;font-style:normal;font-variant:normal;font-weight:normal;font-stretch:normal;line-height:125%;letter-spacing:0px;word-spacing:0px;fill:#093d5f;fill-opacity:1;stroke:none;font-family:Open Sans;-inkscape-font-specification:Open Sans"
       id="text4621"
       transform="translate(4,6)">
      <path
         d="m 332.39677,525.28651 c 6.83999,-17.49598 -1.51201,-28.656 -10.728,-27.864 -3.31199,-0.648 -7.48799,3.456 -1.008,1.728 11.44799,-1.584 13.248,11.30402 7.272,25.488 -6.04799,14.39999 -32.256,31.31998 -29.664,10.656 0.792,-6.04799 5.328,-14.472 7.2,-19.872 2.016,-5.97599 -1.008,-7.70399 -4.752,-2.448 -6.26399,8.71199 -16.12801,29.52001 -24.912,34.704 -2.88,1.728 -4.752,0.936 -3.744,-4.032 1.368,-6.83999 6.12001,-19.87201 10.368,-29.376 5.112,-11.51999 8.35199,-24.984 -2.088,-29.592 -12.74399,-5.61599 -36.00001,5.54402 -43.704,23.328 -8.06399,18.43198 6.04801,29.952 17.352,25.272 17.63998,-7.41599 19.58399,-29.37599 3.672,-24.48 -1.584,0.504 -2.088,1.512 0.144,1.152 12.74399,-2.088 6.33599,17.928 -3.672,21.6 -9.57599,3.528 -20.15999,-2.80802 -13.464,-20.88 5.976,-16.12798 28.22401,-30.88799 39.96,-23.688 5.616,3.456 0.288,18.72001 -3.384,27.576 -5.39999,12.88799 -8.928,22.32001 -9.36,28.368 -0.432,5.904 2.16,7.632 5.04,7.488 7.91999,-0.36 19.29601,-16.92001 23.328,-23.544 -0.864,2.88 -1.656,6.768 -1.44,10.296 1.368,19.00798 30.24001,6.76798 37.584,-11.88"
         style="font-size:72px;text-align:start;line-height:125%;writing-mode:lr-tb;text-anchor:start;fill:#093d5f;fill-opacity:1;font-family:Great Vibes;-inkscape-font-specification:Great Vibes"
         id="path3755"
         inkscape:connector-curvature="0" />
      <path
         d="m 424.5939,524.27851 c 1.368,-13.67999 -4.96801,-24.48001 -14.76,-30.96 0.864,-1.584 4.392,-7.416 6.336,-7.416 0.504,0 0.936,-0.72 0,-0.936 -2.016,-0.432 -5.76001,2.23201 -9.432,6.552 -7.488,-3.95999 -16.48801,-5.616 -25.344,-4.32 -29.66397,4.32 -30.09599,25.20001 -17.496,29.592 6.33599,2.232 14.184,-1.80001 15.192,-8.928 0.216,-1.368 -1.368,-1.368 -1.44,-0.648 -0.144,2.52 -4.53601,10.512 -13.032,7.848 -10.65599,-3.312 -4.60798,-21.096 15.336,-25.344 8.92799,-1.872 17.712,-0.21599 24.768,4.032 -11.30399,12.59999 -16.70401,32.32801 -27.36,42.552 -2.304,-1.224 -8.20801,-4.32 -10.944,-5.328 -16.19999,-5.61599 -21.16799,11.376 -6.48,13.104 6.91199,0.864 12.744,-0.936 18,-5.184 14.54398,8.20799 44.424,8.27998 46.656,-14.616 m -4.536,0.144 c -2.016,18.50398 -26.49602,21.45599 -40.392,13.176 0.936,-0.792 1.8,-1.584 2.736,-2.592 7.91999,-8.49599 17.28001,-25.70401 25.704,-38.952 8.13599,6.40799 13.176,16.56001 11.952,28.368 m -44.568,13.32 c -3.96,2.88 -8.56801,4.536 -13.752,4.32 -8.78399,-0.432 -7.55999,-12.816 2.88,-9.216 4.31999,1.512 7.416,3.24 10.872,4.896"
         style="font-size:72px;text-align:start;line-height:125%;writing-mode:lr-tb;text-anchor:start;fill:#093d5f;fill-opacity:1;font-family:Great Vibes;-inkscape-font-specification:Great Vibes"
         id="path3757"
         inkscape:connector-curvature="0" />
      <path
         d="m 454.73827,528.23851 c 0.72,-1.44 -0.432,-1.944 -1.008,-0.648 -2.448,5.184 -6.048,12.024 -9.576,12.024 -1.008,-0.072 -2.016,-1.224 -1.368,-4.32 0.432,-2.448 2.808,-7.416 4.824,-11.448 2.16,-4.46399 2.88,-5.472 4.968,-7.128 l -3.888,0 c -1.368,0 -2.232,0.36 -2.808,1.512 -2.736,5.688 -6.696,14.11201 -10.728,18.792 -4.67999,5.4 -7.70399,2.51999 -4.248,-4.968 1.296,-2.736 4.536,-9.288 4.536,-9.288 1.944,-3.95999 2.952,-4.824 4.608,-6.048 l -4.392,0 c -1.368,0 -2.232,0.36 -2.808,1.512 -1.08,2.232 -2.592,5.184 -4.032,7.92 l -1.296,2.52 c -0.432,0.936 0.216,1.152 0.648,1.152 -1.296,2.592 -3.096,5.256 -2.448,8.352 0.576,2.736 3.096,3.24 4.536,3.24 3.528,0 7.272,-4.896 9.72,-9.216 -1.872,5.832 0.072,9.216 3.312,9.216 5.256,0 9.144,-8.28 11.448,-13.176"
         style="font-size:72px;text-align:start;line-height:125%;writing-mode:lr-tb;text-anchor:start;fill:#093d5f;fill-opacity:1;font-family:Great Vibes;-inkscape-font-specification:Great Vibes"
         id="path3759"
         inkscape:connector-curvature="0" />
      <path
         d="m 483.42465,528.38251 c 0.72,-1.44 -0.36,-1.944 -1.008,-0.648 -0.72,1.368 -2.30401,4.68 -4.536,7.92 -2.808,4.032 -7.20001,6.192 -10.368,7.128 2.08799,-5.68799 3.96,-11.664 5.76,-16.488 1.79999,-4.82399 2.88,-7.704 5.616,-9.576 l -3.888,0 c -1.368,0 -2.232,0.36 -2.808,1.512 -2.736,5.688 -7.27201,14.11201 -11.304,18.792 -4.68,5.4 -7.704,2.51999 -4.248,-4.968 2.01599,-4.31999 4.032,-8.568 6.48,-12.744 0.864,-1.512 2.016,-2.016 2.664,-2.592 l -4.392,0 c -1.368,0 -2.232,0.36 -2.808,1.512 -1.08,2.232 -2.592,5.184 -4.032,7.92 l -1.296,2.52 c -0.432,0.936 0.216,1.152 0.648,1.152 -1.296,2.592 -3.096,5.256 -2.448,8.352 0.576,2.736 3.096,3.24 4.536,3.24 5.54399,0 10.224,-8.928 12.672,-13.248 -1.152,3.744 -3.45601,11.44801 -6.192,16.2 -5.832,1.656 -12.67201,2.88 -17.496,5.184 -2.808,1.296 -5.4,3.24 -6.768,5.904 -2.16,4.032 -1.44,8.784 5.76,8.784 10.65599,0 17.784,-11.01601 22.32,-19.152 10.36799,-3.744 12.24,-6.76801 17.136,-16.704 m -22.248,18.288 -1.584,2.664 c -3.312,4.536 -10.94401,13.464 -17.28,13.464 -6.192,0 -3.456,-8.496 3.888,-11.664 4.10399,-1.8 10.296,-3.24 14.976,-4.464"
         style="font-size:72px;text-align:start;line-height:125%;writing-mode:lr-tb;text-anchor:start;fill:#093d5f;fill-opacity:1;font-family:Great Vibes;-inkscape-font-specification:Great Vibes"
         id="path3761"
         inkscape:connector-curvature="0" />
      <path
         d="m 502.68015,528.31051 c 0.648,-1.44 -0.36,-1.8 -1.008,-0.504 -2.88,5.688 -6.33601,12.672 -12.6,12.672 -3.096,0 -4.248,-2.664 -4.248,-5.544 0,-4.17599 2.664,-9.144 3.96,-11.016 2.01599,-2.88 5.112,-6.192 7.704,-6.192 1.368,0 2.088,1.008 1.44,3.528 -0.36,1.296 -1.44,2.736 -2.232,3.672 1.584,1.584 4.536,-1.44 4.824,-3.816 0.36,-2.952 -1.36801,-4.968 -4.968,-4.968 -3.456,0 -6.98401,2.088 -9.648,5.688 -5.184,6.98399 -8.92799,19.944 2.448,19.944 7.91999,0 10.8,-5.97601 14.328,-13.464"
         style="font-size:72px;text-align:start;line-height:125%;writing-mode:lr-tb;text-anchor:start;fill:#093d5f;fill-opacity:1;font-family:Great Vibes;-inkscape-font-specification:Great Vibes"
         id="path3763"
         inkscape:connector-curvature="0" />
      <path
         d="m 515.91127,500.51851 c -6.19199,9.21599 -15.696,30.74401 -20.592,37.224 -0.432,0.648 0,1.44 0.576,0.936 1.44,-1.368 4.32001,-6.55201 7.632,-12.816 -2.16,4.968 -4.608,9.07201 -5.904,14.04 -0.288,0.936 -0.432,1.584 0.576,1.584 l 4.536,0 c -1.224,-1.008 0.72,-8.784 2.016,-11.232 1.944,-2.736 4.032,-4.896 5.904,-6.552 8.27999,-7.05599 11.448,-2.016 6.912,1.656 -1.656,1.368 -4.104,2.304 -5.688,2.16 -1.584,0.144 -4.248,3.60001 -3.384,8.28 0.72,3.744 2.952,5.832 5.544,6.12 4.176,0.432 8.64001,-0.72001 14.328,-13.824 0.504,-1.152 -0.36,-1.8 -0.936,-0.648 -2.016,4.176 -4.032,7.92 -5.832,9.864 -6.62399,7.05599 -11.232,-1.94401 -8.496,-8.64 3.168,-0.288 5.112,-1.296 7.272,-2.808 5.472,-3.88799 6.33599,-11.952 -2.952,-8.496 -4.17599,1.584 -8.712,6.336 -11.736,10.08 0.72,-2.16 1.656,-4.248 2.592,-6.12 4.824,-9.57599 12.16801,-21.24 15.84,-24.048 -1.008,0.216 -2.088,-0.216 -3.024,-0.288 l -0.36,0 c -1.584,-0.072 -3.096,1.008 -4.824,3.528"
         style="font-size:72px;text-align:start;line-height:125%;writing-mode:lr-tb;text-anchor:start;fill:#093d5f;fill-opacity:1;font-family:Great Vibes;-inkscape-font-specification:Great Vibes"
         id="path3765"
         inkscape:connector-curvature="0" />
    </g>
    <g
       style="font-size:22px;font-style:normal;font-variant:normal;font-weight:normal;font-stretch:normal;text-align:start;line-height:125%;letter-spacing:0px;word-spacing:0px;writing-mode:lr-tb;text-anchor:start;fill:#294d50;fill-opacity:1;stroke:none;font-family:Open Sans;-inkscape-font-specification:Open Sans"
       id="text5133">
      <path
         d="m 246.5107,556.52374 c -1.72592,2e-5 -3.09018,0.57651 -4.09278,1.72949 -0.99544,1.14585 -1.49316,2.71779 -1.49316,4.71583 0,2.05534 0.47981,3.64518 1.43945,4.76953 0.96679,1.11719 2.34179,1.67578 4.125,1.67578 1.0957,0 2.34537,-0.19694 3.74903,-0.59082 l 0,1.60058 c -1.08856,0.40821 -2.43133,0.61231 -4.02832,0.61231 -2.31316,0 -4.09994,-0.70182 -5.36036,-2.10547 -1.25325,-1.40364 -1.87988,-3.39811 -1.87988,-5.9834 0,-1.61848 0.30078,-3.03645 0.90234,-4.25391 0.60873,-1.21743 1.48242,-2.15558 2.6211,-2.81445 1.14583,-0.65884 2.49218,-0.98826 4.03906,-0.98828 1.64713,2e-5 3.08658,0.3008 4.31836,0.90234 l -0.77344,1.56836 c -1.18881,-0.55858 -2.37761,-0.83787 -3.5664,-0.83789"
         style="line-height:125%;fill:#294d50;fill-opacity:1;font-family:Open Sans;-inkscape-font-specification:Open Sans"
         id="path3768"
         inkscape:connector-curvature="0" />
      <path
         d="m 258.76753,558.83331 c 0.52278,10e-6 0.99186,0.043 1.40723,0.12891 l -0.24707,1.6543 c -0.48699,-0.10742 -0.91668,-0.16113 -1.28906,-0.16114 -0.95248,10e-6 -1.76889,0.38673 -2.44922,1.16016 -0.67318,0.77345 -1.00977,1.73666 -1.00977,2.88965 l 0,6.3164 -1.7832,0 0,-11.77343 1.47168,0 0.2041,2.18066 0.0859,0 c 0.43684,-0.76626 0.96321,-1.35708 1.5791,-1.77246 0.61588,-0.41535 1.29264,-0.62304 2.03027,-0.62305"
         style="line-height:125%;fill:#294d50;fill-opacity:1;font-family:Open Sans;-inkscape-font-specification:Open Sans"
         id="path3770"
         inkscape:connector-curvature="0" />
      <path
         d="m 266.92085,571.03644 c -1.74024,0 -3.11524,-0.52995 -4.125,-1.58985 -1.0026,-1.05989 -1.5039,-2.53157 -1.5039,-4.41503 0,-1.89778 0.46549,-3.40527 1.39648,-4.52247 0.93815,-1.11717 2.19498,-1.67577 3.77051,-1.67578 1.47525,10e-6 2.64257,0.48699 3.50195,1.46094 0.85937,0.96681 1.28905,2.24513 1.28906,3.83496 l 0,1.12793 -8.11035,0 c 0.0358,1.38217 0.38314,2.43132 1.04199,3.14746 0.66602,0.71615 1.60059,1.07422 2.80372,1.07422 1.26757,0 2.52082,-0.26497 3.75976,-0.79492 l 0,1.58984 c -0.63022,0.27214 -1.2282,0.4655 -1.79394,0.58008 -0.55861,0.12175 -1.23536,0.18262 -2.03028,0.18262 m -0.4834,-10.70996 c -0.94531,1e-5 -1.70085,0.30795 -2.2666,0.92383 -0.55859,0.61589 -0.88802,1.4681 -0.98828,2.55664 l 6.15527,0 c 0,-1.12435 -0.25066,-1.98372 -0.75195,-2.57813 -0.50131,-0.60155 -1.21745,-0.90233 -2.14844,-0.90234"
         style="line-height:125%;fill:#294d50;fill-opacity:1;font-family:Open Sans;-inkscape-font-specification:Open Sans"
         id="path3772"
         inkscape:connector-curvature="0" />
      <path
         d="m 281.51949,570.82159 -0.3545,-1.67578 -0.0859,0 c -0.58725,0.73763 -1.17449,1.23894 -1.76172,1.50391 -0.58009,0.25781 -1.30697,0.38672 -2.18067,0.38672 -1.16732,0 -2.08398,-0.30078 -2.75,-0.90235 -0.65885,-0.60156 -0.98828,-1.45735 -0.98828,-2.56738 0,-2.3776 1.90137,-3.62369 5.7041,-3.73828 l 1.99805,-0.0645 0,-0.73047 c -1e-5,-0.92382 -0.20053,-1.60416 -0.60156,-2.04102 -0.39389,-0.444 -1.02768,-0.666 -1.90137,-0.66601 -0.98112,1e-5 -2.09115,0.30079 -3.33008,0.90234 l -0.54785,-1.36426 c 0.58008,-0.31509 1.21386,-0.56216 1.90137,-0.74121 0.69465,-0.17902 1.38932,-0.26854 2.08398,-0.26855 1.40364,1e-5 2.44205,0.31153 3.11524,0.93457 0.68033,0.62305 1.02049,1.62208 1.0205,2.99707 l 0,8.03515 -1.32128,0 m -4.02832,-1.25683 c 1.11001,0 1.98013,-0.30436 2.61035,-0.91309 0.63736,-0.60872 0.95604,-1.46093 0.95605,-2.55664 l 0,-1.06347 -1.7832,0.0752 c -1.41798,0.0501 -2.44206,0.27214 -3.07227,0.66602 -0.62305,0.38672 -0.93457,0.99186 -0.93457,1.81543 0,0.64453 0.19336,1.13509 0.58008,1.47168 0.39388,0.33659 0.94173,0.50488 1.64356,0.50488"
         style="line-height:125%;fill:#294d50;fill-opacity:1;font-family:Open Sans;-inkscape-font-specification:Open Sans"
         id="path3774"
         inkscape:connector-curvature="0" />
      <path
         d="m 290.32808,569.56476 c 0.3151,0 0.61946,-0.0215 0.91309,-0.0644 0.29361,-0.0501 0.52636,-0.10026 0.69824,-0.1504 l 0,1.36426 c -0.19337,0.0931 -0.47983,0.1683 -0.85938,0.22559 -0.3724,0.0644 -0.70899,0.0967 -1.00976,0.0967 -2.27735,0 -3.41602,-1.19955 -3.41602,-3.59863 l 0,-7.00391 -1.68652,0 0,-0.85938 1.68652,-0.74121 0.75195,-2.51367 1.03125,0 0,2.72852 3.41602,0 0,1.38574 -3.41602,0 0,6.92871 c 0,0.70899 0.16829,1.25326 0.50489,1.63281 0.33658,0.37956 0.79849,0.56934 1.38574,0.56934"
         style="line-height:125%;fill:#294d50;fill-opacity:1;font-family:Open Sans;-inkscape-font-specification:Open Sans"
         id="path3776"
         inkscape:connector-curvature="0" />
      <path
         d="m 296.08589,570.82159 -1.7832,0 0,-11.77343 1.7832,0 0,11.77343 m -1.93359,-14.96386 c 0,-0.40819 0.10026,-0.70539 0.30078,-0.8916 0.20052,-0.19335 0.45117,-0.29003 0.75195,-0.29004 0.28646,10e-6 0.53353,0.0967 0.74121,0.29004 0.20768,0.19337 0.31152,0.49057 0.31153,0.8916 -10e-6,0.40105 -0.10385,0.70183 -0.31153,0.90234 -0.20768,0.19337 -0.45475,0.29005 -0.74121,0.29004 -0.30078,10e-6 -0.55143,-0.0967 -0.75195,-0.29004 -0.20052,-0.20051 -0.30078,-0.50129 -0.30078,-0.90234"
         style="line-height:125%;fill:#294d50;fill-opacity:1;font-family:Open Sans;-inkscape-font-specification:Open Sans"
         id="path3778"
         inkscape:connector-curvature="0" />
      <path
         d="m 302.46675,570.82159 -4.46875,-11.77343 1.91211,0 2.53516,6.98242 c 0.57291,1.63281 0.9095,2.69271 1.00976,3.17969 l 0.0859,0 c 0.0788,-0.37956 0.32584,-1.16374 0.74121,-2.35254 0.42252,-1.19596 1.36425,-3.79915 2.8252,-7.80957 l 1.91211,0 -4.46875,11.77343 -2.08399,0"
         style="line-height:125%;fill:#294d50;fill-opacity:1;font-family:Open Sans;-inkscape-font-specification:Open Sans"
         id="path3780"
         inkscape:connector-curvature="0" />
      <path
         d="m 315.90523,571.03644 c -1.74024,0 -3.11524,-0.52995 -4.125,-1.58985 -1.00261,-1.05989 -1.50391,-2.53157 -1.50391,-4.41503 0,-1.89778 0.46549,-3.40527 1.39649,-4.52247 0.93814,-1.11717 2.19498,-1.67577 3.7705,-1.67578 1.47526,10e-6 2.64257,0.48699 3.50196,1.46094 0.85936,0.96681 1.28905,2.24513 1.28906,3.83496 l 0,1.12793 -8.11035,0 c 0.0358,1.38217 0.38313,2.43132 1.04199,3.14746 0.66601,0.71615 1.60058,1.07422 2.80371,1.07422 1.26757,0 2.52082,-0.26497 3.75977,-0.79492 l 0,1.58984 c -0.63022,0.27214 -1.2282,0.4655 -1.79395,0.58008 -0.5586,0.12175 -1.23536,0.18262 -2.03027,0.18262 m -0.4834,-10.70996 c -0.94532,1e-5 -1.70085,0.30795 -2.2666,0.92383 -0.5586,0.61589 -0.88803,1.4681 -0.98828,2.55664 l 6.15527,0 c -1e-5,-1.12435 -0.25066,-1.98372 -0.75195,-2.57813 -0.50131,-0.60155 -1.21746,-0.90233 -2.14844,-0.90234"
         style="line-height:125%;fill:#294d50;fill-opacity:1;font-family:Open Sans;-inkscape-font-specification:Open Sans"
         id="path3782"
         inkscape:connector-curvature="0" />
      <path
         d="m 335.97163,556.52374 c -1.72591,2e-5 -3.09017,0.57651 -4.09277,1.72949 -0.99545,1.14585 -1.49317,2.71779 -1.49316,4.71583 -10e-6,2.05534 0.47981,3.64518 1.43945,4.76953 0.96679,1.11719 2.34179,1.67578 4.125,1.67578 1.09569,0 2.34537,-0.19694 3.74902,-0.59082 l 0,1.60058 c -1.08855,0.40821 -2.43132,0.61231 -4.02832,0.61231 -2.31315,0 -4.09994,-0.70182 -5.36035,-2.10547 -1.25326,-1.40364 -1.87988,-3.39811 -1.87988,-5.9834 0,-1.61848 0.30078,-3.03645 0.90234,-4.25391 0.60872,-1.21743 1.48242,-2.15558 2.6211,-2.81445 1.14582,-0.65884 2.49218,-0.98826 4.03906,-0.98828 1.64712,2e-5 3.08657,0.3008 4.31836,0.90234 l -0.77344,1.56836 c -1.18881,-0.55858 -2.37761,-0.83787 -3.56641,-0.83789"
         style="line-height:125%;fill:#294d50;fill-opacity:1;font-family:Open Sans;-inkscape-font-specification:Open Sans"
         id="path3784"
         inkscape:connector-curvature="0" />
      <path
         d="m 353.01949,564.92413 c -2e-5,1.91928 -0.48341,3.4196 -1.4502,4.50098 -0.96681,1.07422 -2.30242,1.61133 -4.00684,1.61133 -1.05274,0 -1.98731,-0.24707 -2.80371,-0.74121 -0.81641,-0.49414 -1.44661,-1.20313 -1.89062,-2.12696 -0.44401,-0.92382 -0.66602,-2.0052 -0.66602,-3.24414 0,-1.91926 0.47982,-3.41242 1.43946,-4.47949 0.95963,-1.07421 2.29166,-1.61132 3.99609,-1.61133 1.64713,10e-6 2.95409,0.54787 3.9209,1.64356 0.97394,1.09571 1.46092,2.57813 1.46094,4.44726 m -8.96973,0 c 0,1.50391 0.30078,2.64975 0.90234,3.4375 0.60156,0.78777 1.486,1.18165 2.65332,1.18164 1.16731,10e-6 2.05175,-0.39029 2.65332,-1.17089 0.60872,-0.78776 0.91308,-1.93717 0.91309,-3.44825 -10e-6,-1.49673 -0.30437,-2.63182 -0.91309,-3.40527 -0.60157,-0.78059 -1.49317,-1.17089 -2.6748,-1.1709 -1.16732,1e-5 -2.04818,0.38315 -2.64258,1.14942 -0.5944,0.76628 -0.8916,1.90853 -0.8916,3.42675"
         style="line-height:125%;fill:#294d50;fill-opacity:1;font-family:Open Sans;-inkscape-font-specification:Open Sans"
         id="path3786"
         inkscape:connector-curvature="0" />
      <path
         d="m 364.14839,569.24249 -0.0967,0 c -0.82357,1.19597 -2.05534,1.79395 -3.69531,1.79395 -1.53972,0 -2.73926,-0.52637 -3.59863,-1.5791 -0.85222,-1.05274 -1.27832,-2.54948 -1.27832,-4.49024 0,-1.94075 0.42968,-3.44823 1.28906,-4.52246 0.85937,-1.07421 2.05533,-1.61132 3.58789,-1.61133 1.597,10e-6 2.82161,0.58009 3.67383,1.74024 l 0.13965,0 -0.0752,-0.84864 -0.043,-0.82714 0,-4.79102 1.78321,0 0,16.71484 -1.4502,0 -0.23633,-1.5791 m -3.5664,0.30078 c 1.21744,10e-6 2.09829,-0.32942 2.64257,-0.98828 0.55143,-0.66601 0.82714,-1.73665 0.82715,-3.21191 l 0,-0.37598 c -1e-5,-1.66861 -0.2793,-2.85741 -0.83789,-3.5664 -0.55144,-0.71614 -1.43588,-1.07421 -2.65332,-1.07422 -1.04558,1e-5 -1.84766,0.40821 -2.40625,1.22461 -0.55143,0.80925 -0.82715,1.95508 -0.82715,3.4375 0,1.50391 0.27572,2.639 0.82715,3.40527 0.55143,0.76628 1.36067,1.14942 2.42774,1.14941"
         style="line-height:125%;fill:#294d50;fill-opacity:1;font-family:Open Sans;-inkscape-font-specification:Open Sans"
         id="path3788"
         inkscape:connector-curvature="0" />
      <path
         d="m 374.60054,571.03644 c -1.74024,0 -3.11524,-0.52995 -4.125,-1.58985 -1.00261,-1.05989 -1.50391,-2.53157 -1.50391,-4.41503 0,-1.89778 0.4655,-3.40527 1.39649,-4.52247 0.93815,-1.11717 2.19498,-1.67577 3.77051,-1.67578 1.47525,10e-6 2.64257,0.48699 3.50195,1.46094 0.85936,0.96681 1.28905,2.24513 1.28906,3.83496 l 0,1.12793 -8.11035,0 c 0.0358,1.38217 0.38313,2.43132 1.04199,3.14746 0.66601,0.71615 1.60058,1.07422 2.80371,1.07422 1.26757,0 2.52083,-0.26497 3.75977,-0.79492 l 0,1.58984 c -0.63022,0.27214 -1.2282,0.4655 -1.79395,0.58008 -0.5586,0.12175 -1.23536,0.18262 -2.03027,0.18262 m -0.4834,-10.70996 c -0.94532,1e-5 -1.70085,0.30795 -2.2666,0.92383 -0.5586,0.61589 -0.88802,1.4681 -0.98828,2.55664 l 6.15527,0 c -1e-5,-1.12435 -0.25066,-1.98372 -0.75195,-2.57813 -0.50131,-0.60155 -1.21746,-0.90233 -2.14844,-0.90234"
         style="line-height:125%;fill:#294d50;fill-opacity:1;font-family:Open Sans;-inkscape-font-specification:Open Sans"
         id="path3790"
         inkscape:connector-curvature="0" />
      <path
         d="m 387.33003,558.83331 c 0.52278,10e-6 0.99186,0.043 1.40723,0.12891 l -0.24707,1.6543 c -0.48699,-0.10742 -0.91668,-0.16113 -1.28906,-0.16114 -0.95248,10e-6 -1.76889,0.38673 -2.44922,1.16016 -0.67318,0.77345 -1.00977,1.73666 -1.00977,2.88965 l 0,6.3164 -1.7832,0 0,-11.77343 1.47168,0 0.2041,2.18066 0.0859,0 c 0.43684,-0.76626 0.96321,-1.35708 1.5791,-1.77246 0.61588,-0.41535 1.29264,-0.62304 2.03027,-0.62305"
         style="line-height:125%;fill:#294d50;fill-opacity:1;font-family:Open Sans;-inkscape-font-specification:Open Sans"
         id="path3792"
         inkscape:connector-curvature="0" />
    </g>
  </g>
</svg>
